<svg width="1429" height="315" viewBox="0 0 1429 315" fill="none" xmlns="http://www.w3.org/2000/svg">
<path d="M300.221 193.357C300.156 192.703 299.635 191.787 300.09 191.439C317.542 178.098 334.473 164.453 352.707 151.592C373.61 136.813 395.1 122.296 417.305 108.346C445.632 90.6458 474.871 73.5563 503.914 56.3797C509.71 52.9356 516.417 50.1455 523.189 47.5298C528.594 45.4372 534.455 44.8269 539.795 48.2273C541.032 49.0121 543.051 49.448 544.744 49.5352C553.795 50.0583 559.721 54.2871 565.582 57.9927C574.569 63.5729 576.001 71.2458 572.81 78.7442C567.861 90.2534 562.066 101.675 555.684 112.879C542.4 136.334 528.269 159.57 514.854 182.981C506.193 198.109 499.551 213.716 494.862 229.628C494.342 231.416 494.081 233.247 493.625 235.252C495.058 235.034 495.839 235.034 495.904 234.903C497.532 230.762 503.719 229.367 507.431 226.489C532.176 207.438 556.596 188.169 582.318 169.728C619.827 142.83 660.461 118.067 703.114 94.7873C738.865 75.3001 775.983 57.0336 815.12 40.6853C825.474 36.3693 836.544 32.7945 847.484 29.1325C855.233 26.5168 863.113 26.2117 871.513 28.7838C878.155 30.8328 885.123 32.5765 890.398 35.9334C895.021 38.8979 900.1 42.2112 902.119 46.0476C904.138 49.884 903.487 54.6795 902.445 58.8647C897.951 77.0004 887.793 94.0026 878.416 111.179C863.634 138.165 848.33 165.063 837.325 192.877C832.181 205.825 828.599 219.034 824.367 232.157C823.846 233.77 823.976 235.47 825.278 237.475C829.511 233.901 834.134 230.5 837.976 226.751C870.276 195.319 902.51 163.799 934.679 132.279C963.787 103.768 994.003 75.8233 1026.69 49.0993C1044.67 34.4076 1062.51 19.6286 1082.43 6.07045C1084.26 4.84977 1086.21 3.67275 1088.23 2.58286C1095.07 -1.12276 1097.28 -0.948381 1102.62 3.80353C1104.44 3.45476 1106.33 3.01881 1108.35 2.71364C1109.59 2.53926 1111.28 2.23414 1112.06 2.6265C1118.45 5.72178 1126.46 7.68356 1130.04 12.8278C1131.14 14.4409 1131.53 16.5771 1131.08 18.3209C1129.84 22.7676 1128.02 27.1271 1126.19 31.4867C1115.39 56.7721 1104.05 81.9702 1093.7 107.343C1086.34 125.348 1080.68 143.658 1079.76 162.36C1079.44 169.118 1080.03 175.962 1081.13 182.676C1081.91 187.646 1085.17 188.605 1090.97 185.466C1103.92 178.447 1116.82 171.385 1128.86 163.712C1155.11 147.015 1180.5 129.707 1206.81 113.097C1231.49 97.5339 1257.8 83.2781 1285.35 70.0687C1293.81 66.0143 1302.67 62.2214 1312.05 59.3441C1335.03 52.2817 1356.72 55.3771 1376.25 65.1861C1385.37 69.8072 1390.84 76.4336 1391.69 84.4115C1391.75 85.2399 1391.75 86.2863 1392.47 86.853C1397.48 90.515 1396.9 94.8309 1396.05 99.1905C1395.33 99.2777 1394.42 99.1905 1393.9 99.4957C1393.25 99.8444 1392.92 100.455 1392.6 100.978C1392.6 101.065 1393.44 101.588 1393.64 101.501C1394.42 101.283 1395.33 100.978 1395.79 100.542C1396.11 100.193 1395.92 99.5829 1395.92 99.1033C1402.69 102.155 1403.6 107.604 1407.38 111.833C1409.27 113.926 1410.51 116.324 1412.79 118.155C1414.61 119.637 1417.47 120.596 1420.08 121.555C1422.75 122.558 1425.68 123.255 1429 124.214C1428.93 124.999 1428.8 126.176 1428.61 127.353C1428.15 129.925 1425.61 130.928 1422.1 130.884C1418.26 130.884 1414.28 130.884 1410.57 130.318C1406.86 129.751 1403.08 128.835 1399.89 127.484C1396.51 126.089 1395.14 123.778 1397.68 121.163L1397.55 121.25V120.073L1397.68 120.204C1397.35 118.285 1395.33 117.457 1392.86 116.977L1392.99 117.065C1392.86 116.672 1392.79 116.236 1392.66 115.844C1392.86 115.8 1393.05 115.757 1393.25 115.713L1392.79 115.931C1391.23 115.931 1389.73 115.931 1388.17 115.931H1388.24C1386.61 114.58 1382.37 114.58 1383.48 111.833V111.92C1380.49 108.956 1376.9 106.209 1374.63 103.07C1369.68 96.1823 1365.38 89.1199 1360.75 82.1446C1359.26 79.9213 1357.43 77.8287 1355.74 75.6489C1353.72 73.0332 1350.34 72.2921 1346.56 73.164C1342.26 74.2103 1338.09 75.6489 1334.06 77.0875C1327.93 79.3109 1321.94 81.6651 1315.89 83.9757C1316.02 83.4961 1316.15 83.0165 1316.28 82.537L1316.41 82.6242C1316.21 83.0602 1316.08 83.4961 1315.89 83.9321C1313.22 85.5451 1311.59 88.3351 1307.42 87.5504C1297.72 95.4848 1285.22 101.065 1274.15 107.692L1274.28 107.604C1268.22 111.397 1262.1 115.19 1256.11 119.07C1230.39 135.549 1204.86 152.246 1178.88 168.551C1163.51 178.186 1147.42 187.297 1131.34 196.408C1119.29 203.209 1105.62 207.612 1089.4 207.438C1088.1 207.438 1086.8 207.525 1085.56 207.787C1072.08 210.533 1061.08 207.002 1050.92 201.64C1044.86 198.457 1042.13 193.88 1040.43 189.084C1037.24 180.016 1036.92 170.818 1037.83 161.576C1040.37 134.328 1049.87 107.91 1059.77 81.5779C1061.73 76.39 1063.29 71.115 1064.98 65.84L1064.79 65.9271C1064.79 65.5347 1064.79 65.0988 1064.79 64.7064H1064.92C1065.96 63.1806 1066.94 61.6112 1068.3 59.6058C1064.2 59.6494 1062.96 61.5676 1061.4 62.8755C1045.58 76.2157 1029.69 89.5559 1014.12 103.027C984.625 128.661 957.796 155.603 930.641 182.371C919.571 193.313 908.305 204.168 897.17 215.067C895.021 217.203 893.198 219.514 891.179 221.737L891.374 221.65C889.746 223.089 888.184 224.527 886.556 225.966L886.686 225.835C885.579 226.925 884.537 228.015 883.43 229.105V229.061C882.388 230.108 881.346 231.154 880.239 232.244L880.369 232.157C879.783 232.549 879.262 232.898 878.676 233.29L878.806 233.203C878.806 233.595 878.806 233.988 878.806 234.424L878.676 234.38C877.504 235.732 876.527 237.17 875.029 238.391C866.043 245.584 857.056 252.734 847.94 259.883C845.921 261.453 843.512 262.848 841.428 264.374C836.609 267.905 830.878 269.91 823.52 269.518C819.548 269.3 815.966 269.91 812.319 271.087C807.631 272.613 803.268 271.741 798.319 270.259C786.597 266.641 784.318 260.189 784.058 252.734C783.667 241.53 786.272 230.5 789.072 219.514C794.933 196.626 804.961 174.436 815.706 152.421C827.167 128.923 839.279 105.555 850.805 82.101C854.256 74.9949 856.731 67.6709 859.661 60.434C859.922 59.7801 860.247 59.0826 860.247 58.385C860.247 55.2897 856.861 54.0255 853.019 55.7258C841.037 60.9572 828.86 65.9707 817.334 71.6381C792.849 83.714 768.559 95.9207 744.726 108.52C729.227 116.716 714.705 125.653 699.728 134.285C669.708 151.549 642.618 170.861 614.878 189.695C599.965 199.809 585.509 210.272 570.987 220.691C566.95 223.612 563.563 226.925 559.656 229.977C556.27 232.593 552.689 235.078 549.172 237.606L549.302 237.562C547.674 239.132 545.981 240.614 544.483 242.227C542.921 243.927 541.553 245.758 540.055 247.502C538.948 248.854 538.037 250.336 536.474 251.426C528.659 257.006 520.585 262.412 512.705 267.949C505.216 273.224 495.97 275.142 485.355 275.055C482.099 275.055 478.713 275.752 475.522 276.362C469.336 277.583 463.735 277.496 458.917 274.183C458.005 273.572 456.963 273.006 455.791 272.657C448.107 270.39 445.307 265.856 444.981 260.842C444.525 254.434 444.395 247.938 445.372 241.573C448.237 222.479 455.53 203.95 463.67 185.597C476.108 157.696 492.974 130.928 509.775 104.117C510.882 102.373 512.249 100.586 512.77 98.7545C513.096 97.621 512.054 96.3131 511.663 95.0489L511.794 95.1361C513.096 93.959 514.333 92.782 515.636 91.6049C515.31 91.3869 514.984 91.1688 514.659 90.9509C512.835 91.7792 510.817 92.4767 509.189 93.4358C467.903 118.416 427.203 143.832 389.564 171.341C368.01 187.123 347.172 203.34 326.008 219.383C316.891 226.271 307.84 233.203 298.853 240.178C297.681 241.094 297.225 242.402 295.988 243.273C292.927 245.322 289.671 247.197 286.48 249.159C287.457 247.415 287.783 245.323 289.411 243.928C296.509 237.955 303.867 232.113 311.291 226.271C322.231 217.683 333.171 209.051 344.306 200.594C361.824 187.297 379.21 173.87 397.314 160.922C412.747 149.848 429.157 139.386 445.111 128.617C451.167 124.563 457.093 120.378 463.019 116.28C469.271 112.444 475.457 108.607 481.708 104.771C482.229 104.422 482.75 104.073 483.271 103.724C483.792 103.376 484.313 103.027 484.834 102.678C485.355 102.329 485.876 101.981 486.332 101.632C486.853 101.283 487.374 100.891 487.895 100.542C488.416 100.193 489.002 99.8879 489.523 99.5392C490.044 99.1468 490.565 98.7545 491.02 98.3622L491.151 98.4058C490.63 98.7981 490.109 99.1905 489.588 99.5828C489.067 99.9316 488.481 100.28 487.96 100.586C487.439 100.934 486.918 101.327 486.397 101.675C485.876 102.024 485.355 102.373 484.834 102.722L483.271 103.768L481.708 104.814C474.22 107.692 467.577 111.266 463.019 116.323C460.935 117.283 458.591 118.111 456.703 119.288C448.237 124.65 439.706 130.013 431.501 135.593C412.421 148.628 393.406 161.706 374.587 174.916C360.456 184.856 346.781 195.101 332.845 205.171C327.766 208.833 321.45 211.972 317.542 216.114C312.203 221.781 305.886 226.707 298.723 231.285L298.853 231.198C295.662 233.683 292.537 236.124 289.346 238.609L289.476 238.522C287.262 240.571 285.243 242.838 280.75 242.925C280.489 242.925 280.294 244.189 280.099 244.887L279.969 244.799C279.448 245.889 278.927 246.979 278.406 248.069C278.21 247.851 278.015 247.589 277.82 247.371C278.015 247.589 278.275 247.807 278.471 248.025C276.517 249.42 273.457 250.336 273.847 252.995C276.973 253.475 278.666 252.167 280.62 251.208C282.378 250.336 284.397 249.726 286.285 249.028C283.68 252.298 281.141 255.524 277.885 259.578C280.229 258.663 281.597 258.096 282.964 257.573L282.834 257.486C278.015 261.584 273.522 265.812 268.442 269.736C251.707 282.64 234.059 294.934 214.654 306.051C206.123 310.934 196.941 313.724 185.48 313.026C182.224 312.852 178.838 313.593 175.582 314.116C168.093 315.293 161.712 314.247 154.809 311.806C139.05 306.225 134.883 296.765 133.515 286.171C131.822 272.875 133.71 259.753 137.032 246.63C145.237 214.544 161.321 183.984 177.471 153.423C192.383 125.173 206.839 96.7928 221.361 68.4557C222.468 66.3195 225.073 64.0525 222.273 61.6112L222.403 61.6983C223.771 60.0853 225.138 58.4723 226.961 56.2925C222.729 56.5541 221.296 58.3851 219.538 59.6493C189.843 80.7495 162.298 103.027 136.511 126.263C104.732 154.862 76.2751 184.812 53.9392 217.247C40.9153 236.167 30.8218 255.698 24.4401 276.057C23.7238 278.281 23.2028 280.504 22.6168 282.684C18.2755 282.975 15.3668 282.306 13.8908 280.678C12.2628 282.074 10.6999 283.381 9.26729 284.646C6.92299 283.599 4.38333 282.989 3.01582 281.768C1.5832 280.504 0.801766 278.717 0.606408 277.147C-1.41229 260.799 1.64832 244.799 9.20216 229.192C24.1145 198.501 45.0829 169.728 71.1307 142.699C111.049 101.283 156.177 62.5703 208.533 27.8247C216.477 22.5496 225.333 17.9721 233.994 13.2202C236.599 11.8251 239.725 10.866 242.72 9.81973C245.976 8.68624 248.972 8.42472 251.772 10.6917C252.944 11.6072 255.353 12.3047 257.242 12.3047C267.661 12.3047 274.108 16.7078 280.424 21.3725C284.071 24.0318 285.439 26.9963 284.266 30.4839C281.531 38.4619 279.643 46.6143 275.801 54.3743C259.716 87.3325 243.046 120.16 226.636 153.031C213.156 180.104 198.96 207.089 189.713 235.034C185.155 248.81 180.922 262.674 181.378 276.886C181.378 278.542 181.899 280.242 182.159 282.248C187.369 281.202 190.299 279.109 193.099 276.886C205.928 266.554 218.756 256.265 231.455 245.889C234.971 243.012 238.357 240.178 244.999 239.873C243.762 235.906 246.758 233.116 250.209 230.5C256.395 225.835 262.972 221.389 269.028 216.637C274.368 212.408 278.992 207.787 284.201 203.514C285.894 202.076 288.434 201.117 290.583 199.94H290.453C291.755 196.583 294.49 194.229 299.96 193.662L300.156 193.749L299.83 193.662L300.221 193.357ZM222.208 265.551C222.794 265.202 223.38 264.81 223.901 264.461C232.106 259.23 240.571 254.172 248.386 248.723C252.618 245.715 257.633 244.145 263.949 242.576C263.493 244.407 263.233 245.715 262.842 247.328C270.266 247.372 273.457 244.407 275.54 240.483L275.41 240.571C278.015 239.655 280.685 238.74 284.071 237.562C280.229 236.037 276.908 234.642 273.522 233.334C271.177 232.462 270.852 231.416 272.415 230.021L272.284 230.108C273.912 228.669 275.54 227.274 277.168 225.835L277.038 225.923C280.945 222.479 284.657 218.904 288.825 215.59C302.044 205.04 315.003 194.359 328.873 184.202C351.079 167.853 373.61 151.636 396.597 135.724C411.77 125.217 427.659 115.103 443.744 105.207C466.991 90.9945 490.76 77.1312 514.268 63.0934C516.287 61.9163 517.98 60.5212 519.803 59.2134C517.98 58.603 516.873 58.6031 516.222 58.9083C510.686 61.4804 504.891 63.8781 499.812 66.8426C485.225 75.2565 470.833 83.8449 456.637 92.5204C439.706 102.852 422.775 113.141 406.3 123.778C390.281 134.154 374.717 144.922 359.219 155.647C349.451 162.404 339.683 169.118 330.697 176.355C320.408 184.594 308.426 191.787 298.658 200.376C294.165 204.299 288.174 207.438 283.42 211.274C274.368 218.642 265.642 226.184 256.851 233.683C251.121 238.565 245.325 243.404 239.92 248.461C234.385 253.693 229.306 259.142 224.031 264.505C223.445 264.853 222.924 265.246 222.338 265.595L222.208 265.507V265.551ZM1105.42 35.541C1105.42 35.541 1105.36 35.4539 1105.29 35.4539L1105.42 35.541ZM272.35 46.0476L272.284 45.9604V46.0476H272.35ZM500.528 243.579C501.114 243.23 501.7 242.881 502.286 242.489C502.807 242.14 503.263 241.791 503.784 241.399C506.193 239.786 508.733 238.304 510.947 236.603C529.18 222.784 547.284 208.877 565.582 195.057C600.291 168.812 638.19 144.661 677.457 121.468C698.491 108.999 720.11 96.9235 742.316 85.4143C765.368 73.4691 789.397 62.483 812.971 51.061C815.315 49.9275 817.529 48.7069 819.808 47.5734C821.827 46.5707 823.911 45.6116 825.929 44.6525C825.604 44.3473 825.278 44.0858 824.888 43.7806C819.287 45.8732 813.557 47.7914 808.217 50.1019C802.942 52.3253 798.058 54.941 792.979 57.3388C773.118 66.8426 752.8 75.9977 733.46 86.0247C714.315 95.9209 696.016 106.514 677.718 117.152C661.829 126.35 645.809 135.593 631.027 145.576C604.328 163.625 578.476 182.24 552.233 200.637C550.8 201.64 549.042 202.425 547.479 203.34C546.046 204.212 544.549 205.127 543.311 206.13C536.799 211.71 530.418 217.421 523.841 223.002C519.347 226.838 514.529 230.5 510.166 234.424C507.691 236.647 505.933 239.176 503.849 241.573C503.328 241.922 502.872 242.271 502.351 242.663C501.765 243.012 501.179 243.361 500.593 243.753L500.463 243.666L500.528 243.579ZM834.981 240.44C835.567 240.091 836.153 239.742 836.739 239.394C837.13 238.74 837.521 238.129 837.976 237.475C838.628 237.083 839.214 236.647 839.865 236.255C845.726 231.372 851.977 226.707 857.382 221.607C879.067 201.117 900.426 180.496 922.111 160.006C924.194 158.044 929.144 156.693 929.469 154.775C930.055 151.679 932.66 149.761 934.809 147.494C938.456 143.658 942.428 139.996 946.205 136.247C979.806 103.027 1015.88 71.0278 1054.56 40.3802C1063.94 32.9254 1073.77 25.6885 1083.35 18.3209C1085.89 16.3591 1089.14 14.4408 1087.64 10.6044C1085.56 11.7815 1084.13 12.4354 1082.96 13.3073C1073.97 20.1082 1065.11 26.9092 1056.13 33.7101C1032.75 51.4971 1011 70.1559 989.835 89.1199C961.638 114.405 935.395 140.563 908.891 166.633C889.681 185.51 870.536 204.43 851.521 223.35C847.354 227.536 843.707 231.939 839.865 236.255C839.279 236.647 838.628 237.083 838.042 237.475C837.651 238.129 837.26 238.74 836.804 239.394C836.218 239.742 835.632 240.091 835.046 240.44V240.353L834.981 240.44ZM1058.41 48.2273C1057.82 48.5325 1057.23 48.8813 1056.71 49.1864C1056.26 49.5352 1055.74 49.9276 1055.28 50.2763C1054.37 51.2354 1053.39 52.2382 1052.48 53.1973C1051.83 53.6332 1051.24 54.0255 1050.59 54.4615C1050.07 54.8102 1049.55 55.159 1049.03 55.4642L1048.9 55.3771C1049.42 55.0283 1049.94 54.6795 1050.46 54.3743C1051.11 53.982 1051.7 53.546 1052.35 53.1537C1053.26 52.1946 1054.24 51.1918 1055.15 50.2327C1055.61 49.8839 1056.13 49.4916 1056.58 49.1428C1057.17 48.8376 1057.82 48.4889 1058.41 48.1837L1058.6 48.0529L1058.41 48.2273ZM1044.34 59.7801C1043.75 60.0853 1043.17 60.3905 1042.58 60.6521C1042.13 61.0008 1041.6 61.3932 1041.15 61.742C1040.24 62.7447 1039.26 63.7037 1038.35 64.7064C1037.76 65.0988 1037.11 65.4476 1036.53 65.84C1033.07 66.3631 1032.36 68.1941 1032.03 70.1559C1027.21 70.9842 1024.8 73.1204 1024.15 76.3028C1015.69 78.5698 1012.43 83.4525 1010.22 88.8147C1009.63 89.1635 1008.98 89.5558 1008.39 89.9046C1007.42 90.9509 1006.51 91.9536 1005.53 92.9999C1004.94 93.3486 1004.36 93.6974 1003.71 94.0897C1003.12 94.0897 1002.6 94.0897 1002.01 94.0897L1002.14 94.0026C1001.1 95.4413 1000.06 96.8799 999.082 98.3185C996.086 98.9288 993.872 99.9316 994.393 102.373C993.416 103.419 992.44 104.465 991.463 105.555C990.877 105.948 990.226 106.34 989.64 106.689C988.663 107.692 987.751 108.738 986.774 109.741L984.951 110.874C983.974 111.964 982.997 113.054 982.021 114.144C981.044 115.103 980.002 116.106 978.96 117.065L977.137 118.198C974.011 119.767 969.713 120.814 971.015 124.389C969.453 125.784 967.89 127.135 966.327 128.53C965.35 129.577 964.373 130.623 963.331 131.669C962.68 132.105 962.094 132.497 961.443 132.933C960.466 133.936 959.554 134.939 958.578 135.898C957.992 136.29 957.405 136.683 956.819 137.075C956.233 137.511 955.647 137.99 955.061 138.47C955.257 138.557 955.452 138.601 955.647 138.688C955.973 138.121 956.298 137.598 956.689 137.031C957.275 136.639 957.861 136.247 958.447 135.854C959.424 134.852 960.336 133.849 961.313 132.846C961.964 132.41 962.55 132.018 963.201 131.582C964.178 130.536 965.155 129.489 966.197 128.443C967.759 127.048 969.322 125.697 970.885 124.302C972.904 122.253 974.988 120.203 977.006 118.111C977.592 117.719 978.244 117.37 978.83 116.977C979.807 115.975 980.848 115.016 981.825 114.013C982.802 112.923 983.844 111.833 984.821 110.743C985.407 110.351 985.993 110.002 986.579 109.61C987.556 108.607 988.533 107.604 989.444 106.558C990.03 106.166 990.681 105.773 991.268 105.381C992.244 104.335 993.221 103.289 994.198 102.242C995.761 100.891 997.324 99.5392 998.886 98.1877C1000.45 96.7927 1002.01 95.3976 1003.58 93.959C1004.16 93.6102 1004.75 93.2178 1005.33 92.8691C1006.31 91.8664 1007.22 90.8202 1008.2 89.8175C1008.78 89.4251 1009.37 89.0763 1010.02 88.6839C1014.65 84.4988 1019.27 80.3572 1023.96 76.1721C1026.56 74.1231 1029.23 72.0741 1031.84 70.0251C1033.33 68.5864 1034.83 67.1477 1036.4 65.7527C1036.98 65.3603 1037.57 65.0116 1038.22 64.6193C1039.2 63.6166 1040.11 62.6138 1041.08 61.6547C1041.54 61.3059 1042.06 60.9136 1042.52 60.5648C1043.17 60.2596 1043.75 59.9545 1044.4 59.6493V59.7366L1044.34 59.7801ZM901.989 203.82L902.054 203.907V203.82H901.989ZM258.023 79.4854L258.154 79.3981C258.284 79.8776 258.349 80.3573 258.479 80.8368C258.088 81.1856 257.763 81.5343 258.219 81.0984C257.958 81.5779 258.219 81.142 258.414 80.706C258.284 80.3137 258.154 79.8777 258.023 79.4854ZM500.267 93.1743C499.746 93.523 499.226 93.8718 498.639 94.2205C498.314 94.3513 497.988 94.4385 497.793 94.5257C497.988 94.4385 498.249 94.3078 498.509 94.1334C499.03 93.7846 499.551 93.4359 500.072 93.0871C500.658 92.6948 501.244 92.2588 501.83 91.8665C505.933 89.4687 510.1 87.0274 514.203 84.6296C517.133 84.6296 518.24 83.4961 518.957 82.0575C518.501 81.7959 517.98 81.5779 517.524 81.3163C516.482 82.4498 515.44 83.5833 514.398 84.7167C508.082 85.4143 504.956 88.5968 502.026 91.9536C501.44 92.346 500.853 92.7819 500.267 93.1743ZM108.184 133.675L108.314 133.762C107.663 134.198 107.011 134.59 106.36 135.026C105.97 135.68 105.579 136.29 105.188 136.944C104.537 137.337 103.886 137.772 103.3 138.165C102.909 138.819 102.518 139.473 102.128 140.127C101.476 140.519 100.89 140.911 100.239 141.304C99.8483 141.958 99.4576 142.612 99.0018 143.265C98.3506 143.658 97.7645 144.007 97.1133 144.399C96.0714 145.402 95.0946 146.404 94.0527 147.407C93.5969 148.148 93.141 148.846 92.6852 149.587C92.0991 149.936 91.5131 150.328 90.927 150.677C90.4711 151.374 89.9502 152.115 89.4944 152.813C88.3873 153.816 87.3454 154.818 86.2384 155.821C84.8058 156.78 82.9173 157.565 81.9405 158.698C72.0424 169.946 61.5581 180.932 52.767 192.572C44.1061 204.038 37.0081 216.07 29.9101 228.015C23.7889 238.347 18.5142 248.941 17.2118 260.189C16.8862 262.499 16.6258 264.81 16.3002 267.077C15.5187 268.951 14.7373 270.87 13.9559 272.788C14.4117 272.831 14.8024 272.918 15.2583 272.962C15.5839 270.957 15.8443 268.995 16.1699 266.989C16.4955 264.679 16.756 262.412 17.0816 260.101C18.0584 258.314 19.1654 256.57 20.0771 254.739C23.3331 247.938 26.0681 241.007 29.7148 234.293C43.3247 208.964 61.3628 184.986 81.8103 161.837C83.5034 159.919 84.7406 157.826 86.2384 155.777C87.2803 154.731 88.3222 153.728 89.3641 152.682C89.8851 151.985 90.3409 151.243 90.8619 150.546C91.4479 150.197 92.034 149.805 92.6201 149.456C93.0759 148.715 93.5318 148.017 93.9876 147.276C95.0295 146.274 96.0063 145.271 97.0482 144.268C97.6994 143.876 98.2855 143.483 98.9367 143.135C99.3274 142.481 99.7832 141.827 100.174 141.173C100.825 140.781 101.411 140.388 102.062 139.996C102.453 139.342 102.844 138.688 103.235 138.034C103.886 137.642 104.472 137.206 105.123 136.813C105.514 136.159 105.904 135.549 106.295 134.895C106.946 134.459 107.598 134.067 108.184 133.631V133.675ZM118.993 123.168V123.255L118.863 123.386L118.993 123.168ZM540.967 101.283C541.488 100.629 542.074 99.9751 542.595 99.2776L542.725 99.3649C542.204 100.019 541.618 100.673 541.097 101.37L540.967 101.283ZM523.645 98.1006L523.971 97.9262L523.776 98.1877L523.645 98.1006ZM937.804 153.467H938.13L937.804 153.554V153.467ZM325.031 197.411C327.05 197.498 328.352 196.975 328.287 195.449L328.417 195.537C327.31 196.19 326.203 196.844 325.161 197.498L325.031 197.411ZM401.807 142.132C400.7 142.83 399.593 143.527 398.551 144.268C397.053 145.271 395.621 146.274 394.123 147.32V147.233C395.555 146.23 397.053 145.227 398.486 144.181C399.593 143.484 400.7 142.786 401.742 142.088H401.872L401.807 142.132ZM909.868 196.496C910.845 195.449 911.822 194.359 912.799 193.313C915.403 190.872 918.008 188.474 920.678 186.033C924.911 182.545 929.469 179.145 933.311 175.483C952.782 156.998 971.406 138.078 991.593 119.942C1015.62 98.275 1040.95 77.262 1065.63 55.9002C1067.65 54.1564 1069.22 52.1509 1070.97 50.2763L1071.1 49.884L1070.52 49.9711C1068.5 51.279 1066.22 52.456 1064.46 53.8947C1043.95 71.2021 1023.37 88.4224 1003.05 105.861C992.179 115.19 981.63 124.65 971.471 134.328C957.926 147.276 944.837 160.442 931.748 173.608C927.776 177.619 924.39 181.935 920.743 186.12C918.138 188.561 915.534 190.959 912.929 193.4C911.952 194.447 910.975 195.536 909.998 196.583C909.347 196.975 908.761 197.367 908.11 197.803C907.068 198.806 906.091 199.765 905.049 200.768V200.681C905.961 199.678 907.003 198.719 907.98 197.716C908.631 197.324 909.217 196.888 909.868 196.496ZM248.841 70.1995C248.32 70.8098 247.8 71.4201 247.213 72.0304C247.604 72.1176 247.995 72.2048 248.386 72.292C248.516 71.5509 248.581 70.8534 248.646 70.1122C249.167 69.4583 249.688 68.7608 250.209 68.1069C249.753 68.0197 249.297 67.9761 248.776 67.8889C248.776 68.6737 248.776 69.4583 248.776 70.243L248.841 70.1995ZM1389.47 111.92L1389.6 111.833C1390.71 112.095 1391.75 112.4 1392.86 112.661C1392.86 112.356 1392.92 112.051 1392.99 111.746C1391.82 111.79 1390.64 111.877 1389.47 111.92ZM1111.74 52.6305C1108.55 54.5923 1107.77 57.0336 1108.55 59.7801C1107.11 61.7855 1105.29 63.7474 1104.38 65.84C1098.71 79.0494 1092.72 92.2152 1087.97 105.555C1083.28 118.721 1079.7 132.105 1075.99 145.402C1074.75 149.805 1074.69 154.339 1074.1 158.786C1076.64 152.813 1077.68 146.753 1079.7 140.824C1086.28 121.511 1093.11 102.242 1099.95 82.9293C1102.69 75.1693 1105.62 67.4093 1108.42 59.6493C1109.52 57.2516 1110.7 54.8539 1111.8 52.4561L1111.67 52.1074L1111.8 52.5433L1111.74 52.6305ZM550.279 108.869C549.237 111.572 548.13 114.231 547.088 116.934C546.697 118.111 546.307 119.288 545.916 120.421C544.353 122.209 542.53 123.909 541.293 125.784C537.516 131.538 533.999 137.336 530.418 143.135C528.138 146.84 525.924 150.546 523.71 154.295C521.496 158.001 518.826 161.663 517.394 165.543C515.961 169.336 510.361 171.908 511.012 176.224C511.012 176.616 510.296 177.096 509.905 177.532C506.975 181.019 502.481 184.071 503.068 188.561C503.133 189.346 502.677 190.392 501.895 190.915C498.639 193.139 498.639 195.842 498.965 198.632C498.965 199.024 498.965 199.417 498.965 199.765C497.923 200.942 495.904 202.163 496.035 203.297C496.49 209.008 492.844 214.152 491.346 219.558C489.327 226.882 487.96 234.293 486.332 241.66L486.202 241.573C487.309 239.306 488.546 237.039 489.392 234.729C492.779 225.792 495.579 216.724 499.551 207.918C510.1 184.594 522.213 161.619 535.823 139.037C539.534 132.933 542.465 126.612 545.786 120.378C546.177 119.201 546.567 118.024 546.958 116.89C550.995 114.754 550.995 111.833 550.214 108.825V108.912L550.279 108.869ZM280.034 231.198L280.164 231.11C280.88 231.764 281.531 232.418 282.704 233.552C285.373 231.198 287.588 229.236 290.062 227.012C285.178 226.359 284.527 226.315 284.332 228.102C284.071 230.151 282.508 230.762 280.099 231.198H280.034ZM578.476 207.176V207.089C577.434 207.83 576.392 208.528 575.285 209.269L575.415 209.182C573.787 210.49 572.094 211.798 570.596 213.149C568.903 214.718 567.34 216.332 565.712 217.945C566.168 218.163 566.689 218.424 567.145 218.642C578.932 211.798 588.048 203.296 598.467 195.449C596.253 195.362 594.3 195.624 593.128 196.408C588.113 199.896 583.36 203.515 578.476 207.133V207.176ZM664.759 150.59C672.638 147.756 678.434 143.396 684.816 139.298C695.821 132.192 707.607 125.653 719.199 118.983C731.571 111.877 744.139 104.902 756.642 97.8827C758.335 96.9236 759.898 95.9208 762.633 94.2642C758.01 94.2642 755.991 95.3104 753.907 96.7055C750.782 98.7981 747.395 100.716 744.009 102.591C738.604 105.555 733.069 108.389 727.664 111.397C716.724 117.501 705.849 123.648 695.039 129.882C686.183 134.982 677.522 140.17 668.861 145.402C666.647 146.753 663.912 148.148 664.824 150.633C663.717 150.938 662.675 151.244 661.568 151.549C661.698 151.679 661.763 151.854 661.894 151.985C662.805 151.505 663.717 151.025 664.694 150.546L664.759 150.59ZM883.43 93.1743C882.127 94.8309 880.499 96.444 879.588 98.2314C866.759 122.34 853.605 146.361 841.363 170.6C830.618 191.918 822.283 213.672 818.18 236.08C817.855 237.911 817.724 239.742 817.529 241.573C819.548 240.265 820.329 238.827 820.655 237.345C825.083 215.154 833.548 193.618 844.098 172.431C854.256 151.941 865.196 131.626 875.615 111.179C878.611 105.25 880.76 99.1905 883.365 93.1743L883.495 92.7819C883.495 92.7819 883.495 93.0871 883.495 93.2179L883.43 93.1743ZM1078.72 67.9761C1079.24 63.5293 1079.76 59.039 1080.29 54.5922C1078.85 55.5513 1077.94 56.5976 1077.49 57.7311C1070.65 75.3873 1063.42 92.9563 1057.3 110.743C1053.33 122.427 1050.98 134.328 1048.05 146.143C1047.4 148.671 1047.6 151.287 1047.34 153.859C1050.27 146.666 1052.15 139.473 1054.43 132.367C1057.04 124.214 1059.71 116.062 1062.7 107.997C1065.11 101.588 1068.04 95.3105 1070.71 88.9891V87.812C1073.32 81.1855 1075.92 74.559 1078.53 67.9761L1078.66 68.0632L1078.72 67.9761ZM883.821 65.0988C880.304 64.968 879.523 66.4938 879.067 68.3684C878.285 71.4637 877.96 74.6462 876.462 77.5671C871.252 88.1173 865.522 98.5801 860.117 109.13C849.633 129.707 839.018 150.241 828.86 170.861C819.613 189.738 812.32 208.964 807.631 228.582C806.068 234.99 804.18 241.486 805.938 248.069C806.784 246.412 807.305 244.756 807.566 243.056C809.584 229.323 813.687 215.896 818.766 202.512C831.334 169.205 848.982 137.031 865.717 104.596C869.494 97.2722 872.75 89.8175 877.569 82.6242C881.216 77.2184 881.802 70.8533 883.69 64.9244C883.69 64.532 883.69 64.1833 883.69 64.7064C883.495 64.2269 883.69 64.6193 883.821 65.0116V65.0988ZM215.956 160.05L216.086 160.006C212.44 167.33 208.728 174.654 205.081 182.022L205.212 181.978C204.235 184.332 203.258 186.687 202.216 188.997C193.75 207.089 185.545 225.225 180.401 243.928C178.903 249.333 176.624 254.652 174.931 260.014C173.694 263.938 174.736 267.818 176.559 271.611C178.447 265.42 179.62 259.229 181.117 253.082C186.001 233.29 194.011 213.977 203.258 194.926C217.845 164.802 233.083 134.808 247.93 104.727C249.623 101.283 250.6 97.6646 251.902 94.1334C252.749 92.6511 253.53 91.2124 254.377 89.7302C253.791 89.643 253.139 89.5558 252.553 89.4686C252.358 91.0381 252.228 92.6076 252.032 94.177C249.753 96.6184 246.758 98.9288 245.455 101.588C241.483 109.435 238.422 117.501 234.45 125.348C228.524 136.988 222.143 148.497 215.956 160.05ZM230.087 47.0503C228.394 47.7914 226.375 48.3145 225.073 49.3172C206.058 63.6601 186.718 77.7415 168.354 92.4332C135.729 118.547 105.97 146.056 80.2474 175.395C53.3531 206.043 31.2776 238.042 21.3795 273.267C21.119 274.314 21.0539 275.403 20.9237 276.45C21.9004 276.014 22.226 275.534 22.4214 275.055C30.1055 251.644 42.5433 229.323 58.1719 207.787C99.653 150.633 156.893 101.021 220.97 54.6359C224.226 52.2817 226.961 49.5352 229.957 47.0067L230.087 47.0503ZM516.156 112.095C511.924 118.329 507.691 124.519 503.393 130.754L503.523 130.666C501.961 133.108 500.333 135.593 498.77 138.034L498.9 137.947C497.793 139.734 496.686 141.522 495.579 143.309L495.709 143.222C489.588 152.944 482.815 162.535 477.476 172.474C473.178 180.452 471.094 188.954 467.122 197.019C461.131 209.313 458.396 222.043 455.596 234.729C455.14 236.821 455.27 238.914 455.075 241.05C458.786 236.603 460.87 232.157 461.131 227.23C461.326 223.743 464.191 220.342 465.624 216.811C469.271 207.656 471.94 198.327 477.345 189.52C479.364 186.207 481.383 182.85 483.206 179.493C484.443 177.226 485.225 174.872 486.202 172.518C486.202 172.126 486.202 171.733 486.202 171.341C487.83 167.853 489.458 164.409 491.086 160.922L490.955 161.009C493.039 156.911 495.058 152.813 497.142 148.715C503.458 136.465 509.775 124.171 516.091 111.92L519.933 107.038C519.347 106.907 518.826 106.776 518.24 106.645C517.589 108.433 516.873 110.22 516.222 112.008L516.156 112.095ZM864.35 75.2566C863.829 74.6463 863.243 73.9923 862.201 72.7716C861.224 74.6462 860.508 75.7361 859.987 76.8696C856.34 84.4988 852.889 92.128 849.112 99.7136C837 124.171 824.432 148.497 812.645 173.041C802.031 195.144 794.021 217.639 791.807 240.919C791.546 243.666 791.807 246.369 791.807 249.115C793.435 247.895 794.021 246.5 794.346 245.105C794.802 242.707 794.802 240.222 795.323 237.824C799.621 218.163 806.654 198.85 815.315 179.886C828.274 151.462 841.102 122.994 857.773 95.3977C859.205 92.9999 859.922 90.3842 860.703 87.8556C861.615 84.7167 862.266 81.5343 863.047 78.3518C863.764 78.6134 864.545 78.9186 865.261 79.1802C866.369 77.7415 868.322 76.2157 864.415 75.213L864.35 75.2566ZM153.376 224.789C146.734 237.998 143.478 251.557 144.26 265.551C146.148 264.199 148.232 262.717 148.232 261.235C148.232 256.57 150.902 252.385 152.856 248.069C153.897 245.758 154.418 243.361 154.874 240.963C155.525 237.345 155.265 233.639 156.632 230.151C160.409 220.212 164.251 210.228 169.005 200.463C181.117 175.613 193.75 150.895 206.253 126.132C209.64 119.375 214.393 112.836 216.542 105.904C219.408 96.662 223.771 87.7684 228.003 78.8313C228.524 77.785 228.72 76.6952 229.11 75.6489C227.613 75.9977 227.092 76.5645 226.766 77.1748C216.021 97.1851 205.277 117.152 194.597 137.206C193.555 139.168 193.099 141.216 192.318 143.265C191.276 144.66 189.974 145.968 189.257 147.407C179.945 165.674 170.438 183.853 161.582 202.207C158 209.618 155.981 217.334 153.246 224.92V224.833L153.376 224.789ZM8.29049 250.728C9.20216 250.249 9.78824 250.118 9.91848 249.9C11.4813 246.761 12.8488 243.579 14.4117 240.44C26.4588 216.985 40.8502 194.229 59.0836 172.649C97.2436 127.528 144.52 86.8965 196.681 48.7505C209.119 39.639 222.794 31.2688 235.883 22.5497C237.511 21.4598 240.115 20.6314 238.943 17.4926C231.194 21.7649 223.771 25.2962 217.389 29.4813C190.299 47.1375 165.489 66.1887 142.046 85.981C112.612 110.83 84.8058 136.508 60.5162 163.799C42.0874 184.507 26.7844 206.217 15.7141 229.192C12.393 236.124 9.59288 243.143 8.29049 250.728ZM162.819 267.905C163.34 267.164 164.186 266.423 164.382 265.682C165.814 258.314 166.531 250.816 168.549 243.535C174.084 223.83 182.941 204.691 192.318 185.64C209.509 150.938 226.961 116.28 244.283 81.6215C244.999 80.2264 245.455 78.7442 246.041 77.3056C245.52 77.1748 245.065 77.0439 244.544 76.9131C243.437 78.7441 242.134 80.5316 241.222 82.4062C235.752 93.0871 230.413 103.855 225.008 114.536C212.179 139.734 199.09 164.889 186.522 190.174C176.95 209.356 169.396 228.887 163.21 248.679C161.256 254.957 160.214 261.279 162.819 267.905ZM471.485 242.881C476.89 228.713 481.578 214.806 487.569 201.16C493.625 187.297 500.788 173.652 507.886 160.05C514.789 146.797 523.255 133.936 529.376 120.465C525.143 125.871 521.236 131.408 518.175 137.162C510.556 151.374 499.356 164.627 492.974 179.145C486.983 192.834 481.187 206.566 476.043 220.386C473.373 227.579 470.182 234.86 471.42 242.881H471.485ZM1100.41 45.35C1082.43 81.9702 1066.61 118.939 1061.79 157.565C1070.32 119.506 1086.73 82.6242 1100.41 45.35ZM770.513 90.7329C772.271 89.6866 773.964 88.6403 775.722 87.5941C775.332 87.2889 774.941 86.9401 774.485 86.6349C772.076 87.2017 769.08 87.2017 770.513 90.7329ZM887.532 84.5423C886.751 84.4115 885.904 84.3244 885.123 84.1936C884.862 85.6323 884.537 87.1145 884.276 88.5532L886.165 88.8147C886.621 87.3761 887.076 85.9374 887.532 84.5423ZM562.261 222.522C559.266 221.955 557.507 222.173 559.591 224.397C560.633 223.656 561.414 223.089 562.261 222.522ZM252.618 64.1397C252.097 63.7909 251.707 63.573 251.381 63.355C251.056 63.7473 250.6 64.1397 250.404 64.5756C250.404 64.7064 251.056 65.0116 251.381 65.2296C251.837 64.8808 252.228 64.4884 252.618 64.1397ZM870.276 64.532C869.82 64.532 869.429 64.4448 868.973 64.4012C868.843 65.2295 868.778 66.0579 868.713 66.8862C868.713 66.8862 869.559 66.9734 870.015 67.017C870.015 66.1887 870.145 65.3603 870.211 64.532H870.276ZM542.335 225.094C541.488 224.484 540.837 223.874 540.641 223.917C539.86 224.179 539.144 224.571 538.623 225.051C538.493 225.181 539.469 226.053 539.73 226.053C540.511 225.966 541.227 225.53 542.269 225.138L542.335 225.094ZM223.966 39.8134C223.966 39.8134 223.315 39.5082 223.054 39.3775C222.924 39.5082 222.729 39.6826 222.729 39.7262C222.989 39.9005 223.315 40.0314 223.64 40.1621C223.77 40.0314 223.836 39.9442 223.966 39.8134ZM1046.55 160.617L1046.88 160.442L1046.62 160.224V160.617H1046.55ZM333.822 191.962C333.822 191.7 333.952 191.439 334.018 191.177C333.822 191.177 333.432 191.177 333.432 191.264C333.301 191.482 333.236 191.787 333.171 192.005C333.366 192.005 333.627 191.962 333.822 191.918V191.962ZM268.703 57.5132C268.703 57.208 268.638 56.9029 268.573 56.5541C268.182 56.6413 267.531 56.6413 267.4 56.8157C267.205 57.0772 267.4 57.426 267.4 57.7311C267.856 57.6439 268.247 57.5568 268.703 57.4696V57.5132ZM1083.28 47.7042C1083.67 47.4426 1084.13 47.2246 1084.32 46.963C1084.39 46.7886 1083.93 46.5271 1083.67 46.3091C1083.35 46.5707 1082.89 46.7451 1082.7 47.0503C1082.63 47.1811 1083.02 47.4863 1083.28 47.7479V47.7042ZM791.677 79.4417C791.677 79.4417 791.612 79.1365 791.546 78.9621C791.156 79.0493 790.7 79.093 790.309 79.2238C790.309 79.2238 790.374 79.5289 790.439 79.6596C790.83 79.5725 791.286 79.4853 791.677 79.3981V79.4417ZM892.156 69.2839L892.351 69.6327L892.677 69.3275H892.091L892.156 69.2839ZM1399.63 117.195C1399.63 117.195 1400.48 116.847 1400.48 116.672C1400.48 116.454 1400.09 116.193 1399.89 115.931C1399.57 116.106 1399.05 116.28 1399.05 116.454C1399.05 116.672 1399.44 116.934 1399.63 117.152V117.195ZM1103.4 39.1595C1103.4 39.1595 1103.21 39.4211 1103.14 39.5082C1103.34 39.5518 1103.53 39.6826 1103.66 39.639C1103.79 39.639 1103.92 39.3775 1103.92 39.2903C1103.92 39.2031 1103.6 39.1595 1103.4 39.1159V39.1595ZM549.628 85.1091H550.214L550.019 84.804L549.628 85.1091ZM260.042 76.8696L259.716 77.044L260.107 77.1748V76.8696H260.042ZM1324.61 78.7878V79.0929L1325.07 78.9186L1324.61 78.7878ZM425.38 107.125C425.055 106.951 424.664 106.602 424.338 106.602C424.013 106.602 423.622 106.907 423.231 107.081C423.687 107.343 424.078 107.561 424.534 107.822C424.794 107.604 425.12 107.386 425.38 107.125ZM1366.29 69.5891C1366.29 69.5891 1366.68 69.6763 1366.88 69.7199C1366.88 69.5891 1367.07 69.4148 1366.94 69.3712C1366.81 69.284 1366.55 69.284 1366.42 69.2404C1366.42 69.3712 1366.36 69.4583 1366.29 69.5891ZM1253.18 92.9127C1253.18 92.9127 1253.05 92.6075 1252.98 92.4767C1252.85 92.6511 1252.72 92.8255 1252.53 92.9999C1252.72 92.9999 1252.92 92.9563 1253.11 92.9127H1253.18ZM884.276 61.3496L884.407 60.9136L883.755 61.0444L884.276 61.3496ZM874.118 54.723L873.662 54.8974L874.118 55.0719V54.7667V54.723Z" fill="white"/>
<path d="M428.831 147.231C438.73 140.648 448.628 134.066 458.656 127.483C459.893 126.654 461.587 126.175 463.084 125.521L462.954 125.434C452.665 132.278 442.376 139.123 432.022 145.924C431.176 146.49 429.808 146.752 428.701 147.144L428.831 147.231Z" fill="white"/>
<path d="M1397.74 121.163C1395.98 121.25 1394.16 121.337 1391.95 121.468C1390.25 119.855 1386.93 118.722 1388.24 115.932H1388.17C1389.8 116.324 1391.43 116.673 1393.05 117.065L1392.92 116.978C1393.44 118.809 1394.81 120.03 1397.74 120.204L1397.61 120.073C1397.61 120.466 1397.61 120.858 1397.61 121.25L1397.74 121.163Z" fill="white"/>
<path d="M487.96 109.828C483.271 112.531 478.648 115.234 473.959 117.937L474.089 118.024C478.778 115.321 483.401 112.618 488.09 109.915L487.96 109.828Z" fill="white"/>
<path d="M223.9 169.465C222.532 172.778 221.1 176.048 219.732 179.361C219.341 179.274 218.951 179.187 218.625 179.143C220.448 175.961 222.272 172.778 224.03 169.552L223.9 169.465Z" fill="white"/>
<path d="M193.099 243.971L190.429 250.99C190.429 250.99 189.908 250.902 189.713 250.859C190.885 248.592 192.057 246.325 193.164 244.101V244.014L193.099 243.971Z" fill="white"/>
<path d="M522.345 178.619C524.038 175.96 525.731 173.344 527.424 170.685L527.294 170.598C525.601 173.257 523.908 175.916 522.215 178.576L522.28 178.663L522.345 178.619Z" fill="white"/>
<path d="M542.725 143.264C541.097 145.967 539.534 148.67 537.906 151.373L538.036 151.46C539.664 148.757 541.227 146.054 542.855 143.351L542.725 143.264Z" fill="white"/>
<path d="M417.763 154.556C420.303 152.899 422.777 151.199 425.317 149.542L425.187 149.455C422.647 151.112 420.172 152.812 417.633 154.469L417.763 154.556Z" fill="white"/>
<path d="M414.637 158.045C412.032 159.702 409.427 161.358 406.822 163.015L406.953 163.102C408.45 160.661 410.86 158.917 414.767 158.176L414.637 158.089V158.045Z" fill="white"/>
<path d="M362.671 194.49C360.717 196.19 358.829 197.891 356.875 199.591L357.005 199.678C358.894 197.978 360.847 196.278 362.736 194.578L362.606 194.49H362.671Z" fill="white"/>
<path d="M367.947 191.307C368.924 190.174 369.966 188.997 370.943 187.863C371.268 188.038 371.594 188.212 371.92 188.386C370.552 189.346 369.185 190.305 367.752 191.22L367.882 191.307H367.947Z" fill="white"/>
<path d="M198.567 224.44C199.153 223.001 199.739 221.519 200.325 220.08C200.651 220.167 200.911 220.211 201.237 220.298C200.325 221.649 199.414 222.957 198.502 224.309V224.396L198.567 224.44Z" fill="white"/>
<path d="M503.719 100.455C501.115 101.719 498.445 103.027 495.84 104.292L495.97 104.379C498.64 103.114 501.245 101.85 503.915 100.586L503.784 100.499L503.719 100.455Z" fill="white"/>
<path d="M208.144 202.598C208.469 201.421 208.86 200.243 209.186 199.066C209.511 199.154 209.837 199.197 210.097 199.284C209.381 200.374 208.73 201.421 208.014 202.51L208.144 202.598Z" fill="white"/>
<path d="M545.915 138.031C544.873 139.775 543.831 141.519 542.789 143.263L542.919 143.35C543.961 141.606 545.003 139.862 546.045 138.118L545.915 138.031Z" fill="white"/>
<path d="M549.042 132.846C548 134.59 546.958 136.333 545.916 138.077L546.046 138.164C547.088 136.421 548.13 134.677 549.172 132.933L549.042 132.846Z" fill="white"/>
<path d="M238.356 142.48C237.705 143.352 237.054 144.224 236.402 145.053C236.207 144.965 236.012 144.878 235.816 144.791C236.728 144.05 237.575 143.309 238.421 142.568L238.356 142.48Z" fill="white"/>
<path d="M528.53 167.111C529.702 165.454 530.809 163.842 531.981 162.185L531.851 162.098C530.744 163.711 529.572 165.367 528.465 166.98L528.595 167.068L528.53 167.111Z" fill="white"/>
<path d="M537.907 151.375C536.865 153.119 535.823 154.906 534.781 156.65L534.912 156.737C535.953 154.993 536.995 153.25 538.037 151.462L537.907 151.375Z" fill="white"/>
<path d="M531.982 162.186C532.959 160.355 533.935 158.524 534.912 156.693L534.782 156.605C533.805 158.436 532.828 160.267 531.852 162.098L531.982 162.186Z" fill="white"/>
<path d="M193.165 244.056C193.1 243.097 192.969 242.182 192.904 241.223C193.165 241.223 193.36 241.223 193.621 241.223C193.425 242.138 193.295 243.01 193.165 243.926L193.23 244.013L193.165 244.056Z" fill="white"/>
<path d="M188.805 258.925L188.479 258.663L188.805 258.445V258.925Z" fill="white"/>
<path d="M417.634 154.469C416.657 155.646 415.615 156.823 414.639 158C414.639 158 414.769 158.087 414.769 158.131C415.746 156.954 416.722 155.733 417.764 154.556L417.634 154.469Z" fill="white"/>
<path d="M206.972 72.9899C207.884 72.0308 208.795 71.0716 209.707 70.1125L209.577 70.0254C208.665 70.9845 207.753 71.9436 206.842 72.9027L206.972 72.9899Z" fill="white"/>
<path d="M154.808 113.926C153.961 114.928 153.05 115.931 152.203 116.934L152.333 117.021C153.18 116.018 154.092 115.016 154.938 114.013L154.808 113.926Z" fill="white"/>
<path d="M707.085 132.629C708.518 132.018 710.016 131.452 711.448 130.841L711.318 130.754C709.885 131.364 708.388 131.931 706.955 132.541L707.085 132.629Z" fill="white"/>
<path d="M133.513 133.717C134.425 132.758 135.336 131.755 136.248 130.796L136.118 130.709C135.206 131.668 134.294 132.671 133.383 133.63L133.513 133.717Z" fill="white"/>
<path d="M196.941 228.581C197.462 227.186 198.048 225.834 198.569 224.439C198.569 224.439 198.569 224.352 198.504 224.309C197.983 225.704 197.462 227.099 196.941 228.494V228.581Z" fill="white"/>
<path d="M889.551 224.789C888.575 225.835 887.533 226.838 886.556 227.884V227.972C886.621 227.23 886.556 226.533 886.556 225.792L886.426 225.923C887.533 225.574 888.575 225.225 889.682 224.833L889.551 224.789Z" fill="white"/>
<path d="M196.941 228.494C196.941 229.104 196.81 229.758 196.875 229.279C196.81 229.802 196.875 229.192 197.006 228.625V228.538L196.941 228.494Z" fill="white"/>
<path d="M516.089 191.178C516.74 190.306 517.392 189.434 518.108 188.562L517.978 188.475C517.326 189.347 516.675 190.218 515.959 191.134L516.089 191.221V191.178Z" fill="white"/>
<path d="M216.477 186.381C215.761 187.253 215.044 188.081 214.328 188.953L214.458 189.04C215.175 188.168 215.826 187.34 216.542 186.468V186.381H216.477Z" fill="white"/>
<path d="M519.478 185.247C518.957 186.293 518.501 187.383 517.98 188.429L518.111 188.516C518.632 187.47 519.087 186.38 519.608 185.29L519.478 185.203V185.247Z" fill="white"/>
<path d="M250.86 117.324C250.86 117.324 250.469 117.76 250.273 117.978C250.469 117.978 250.729 117.978 250.794 117.847C250.86 117.76 250.794 117.586 250.794 117.455V117.368L250.86 117.324Z" fill="white"/>
<path d="M216.542 186.468C216.542 186.163 216.411 185.858 216.346 185.553C216.346 185.684 216.476 185.771 216.476 185.901C216.476 186.032 216.476 186.207 216.476 186.381L216.542 186.468Z" fill="white"/>
<path d="M520.974 182.021C520.453 183.068 519.998 184.158 519.477 185.204L519.607 185.291C520.128 184.245 520.584 183.155 521.105 182.109L520.974 182.021Z" fill="white"/>
<path d="M522.21 178.535C521.819 179.712 521.363 180.846 520.973 182.023L521.103 182.11C521.494 180.933 521.949 179.799 522.34 178.622L522.21 178.535Z" fill="white"/>
<path d="M246.106 126.697C245.39 127.526 244.673 128.397 243.957 129.226L244.022 129.313C244.738 128.485 245.39 127.613 246.106 126.784V126.697Z" fill="white"/>
<path d="M212.764 192.136C213.35 191.089 213.871 190.087 214.457 189.04L214.327 188.953C213.741 189.999 213.22 191.002 212.699 192.048L212.764 192.136Z" fill="white"/>
<path d="M516.026 191.088C515.505 192.134 514.919 193.137 514.398 194.183L514.529 194.27C515.05 193.224 515.636 192.221 516.157 191.175L516.026 191.088Z" fill="white"/>
<path d="M550.54 130.492C550.67 130.23 550.865 129.969 550.93 129.838C550.865 129.925 550.67 130.187 550.475 130.405L550.605 130.492H550.54Z" fill="white"/>
<path d="M212.7 192.047C212.7 192.352 212.7 192.657 212.635 192.962C212.635 192.701 212.765 192.396 212.831 192.134L212.765 192.047H212.7Z" fill="white"/>
<path d="M243.955 129.227C243.434 130.273 242.978 131.363 242.457 132.409L242.587 132.496C243.108 131.45 243.564 130.404 244.085 129.314L243.955 129.227Z" fill="white"/>
<path d="M242.461 132.453C241.94 133.499 241.419 134.546 240.898 135.592L241.029 135.679C241.55 134.633 242.071 133.587 242.592 132.54L242.461 132.453Z" fill="white"/>
<path d="M239.399 138.775C239.92 137.729 240.441 136.682 241.027 135.636L240.897 135.549C240.376 136.595 239.855 137.641 239.334 138.688L239.399 138.775Z" fill="white"/>
<path d="M528.463 167.025C528.072 168.202 527.682 169.38 527.291 170.6L527.421 170.687C527.812 169.51 528.203 168.29 528.528 167.113L528.398 167.025H528.463Z" fill="white"/>
<path d="M239.332 138.688C239.007 139.952 238.681 141.173 238.355 142.437C238.355 142.437 238.421 142.524 238.421 142.568C238.746 141.303 239.072 140.083 239.397 138.818L239.267 138.731L239.332 138.688Z" fill="white"/>
<path d="M503.852 100.54C504.828 99.7992 505.805 99.1017 506.782 98.3606L506.652 98.2734C505.675 99.0146 504.698 99.7121 503.656 100.453L503.787 100.54H503.852Z" fill="white"/>
<path d="M514.398 194.184C514.268 194.576 514.203 194.968 514.268 194.576C514.008 194.925 514.268 194.576 514.529 194.271L514.398 194.184Z" fill="white"/>
<path d="M227.158 163.232C226.962 163.494 226.702 163.799 226.637 163.93C226.767 163.799 227.027 163.581 227.288 163.32L227.158 163.232Z" fill="white"/>
<path d="M203.908 213.541C203.648 213.759 203.453 214.02 203.322 214.151C203.453 214.02 203.713 213.846 203.973 213.628L203.908 213.541Z" fill="white"/>
<path d="M203.973 213.628C203.973 213.323 203.973 213.061 203.973 212.756C203.973 212.887 203.973 212.974 203.973 213.105C203.973 213.235 203.973 213.41 203.973 213.541L204.038 213.628H203.973Z" fill="white"/>
<path d="M208.013 202.512C208.013 202.817 207.948 203.122 207.883 203.471C207.948 203.209 208.079 202.904 208.144 202.642L208.013 202.555V202.512Z" fill="white"/>
<path d="M107.989 157.912C107.598 158.522 107.207 159.133 106.816 159.743L106.947 159.83C107.337 159.22 107.728 158.61 108.119 157.999L107.989 157.912Z" fill="white"/>
<path d="M72.4991 198.936L70.7409 200.592L70.6758 200.679C71.327 200.113 71.9782 199.589 72.5642 199.023V198.936H72.4991Z" fill="white"/>
<path d="M1034.77 88.8574C1034.38 89.4678 1033.92 90.0345 1033.53 90.6449L1033.66 90.732C1034.05 90.1217 1034.51 89.5549 1034.9 88.9446L1034.77 88.8574Z" fill="white"/>
<path d="M110.074 156.692C110.464 156.081 110.855 155.471 111.246 154.861L111.116 154.773C110.725 155.384 110.334 155.994 109.943 156.605L110.074 156.692Z" fill="white"/>
<path d="M965.027 153.597C965.417 152.986 965.743 152.332 966.134 151.722L966.004 151.635C965.613 152.245 965.287 152.899 964.896 153.509L965.027 153.597Z" fill="white"/>
<path d="M72.5 199.024C73.021 198.326 73.5419 197.629 74.0629 196.931V196.844C73.5419 197.541 73.021 198.239 72.5651 198.98V199.067L72.5 199.024Z" fill="white"/>
<path d="M113.199 153.553C113.589 152.943 113.98 152.332 114.371 151.722L114.241 151.635L113.068 153.466L113.199 153.553Z" fill="white"/>
<path d="M178.839 94.9618C179.23 94.3515 179.621 93.6976 179.946 93.0873L179.816 93C179.425 93.6103 179.1 94.2644 178.709 94.8747L178.839 94.9618Z" fill="white"/>
<path d="M908.698 207.96C909.089 207.35 909.479 206.739 909.87 206.085L909.74 205.998C909.349 206.608 908.958 207.219 908.633 207.873L908.763 207.96H908.698Z" fill="white"/>
<path d="M187.761 86.8086C187.37 87.4189 186.979 88.0292 186.523 88.6395L186.654 88.7268C187.044 88.1165 187.435 87.5061 187.826 86.8957L187.761 86.8086Z" fill="white"/>
<path d="M905.05 210.184L904.008 212.102L904.138 212.189C904.464 211.535 904.854 210.925 905.18 210.271L905.05 210.184Z" fill="white"/>
<path d="M968.085 150.416C968.476 149.805 968.932 149.238 969.323 148.628L969.192 148.541C968.802 149.151 968.346 149.718 967.955 150.328L968.085 150.416Z" fill="white"/>
<path d="M920.677 195.58C920.287 196.234 919.961 196.844 919.57 197.498L919.701 197.586C920.091 196.975 920.417 196.321 920.808 195.711L920.677 195.624V195.58Z" fill="white"/>
<path d="M103.82 162.97C104.21 162.359 104.601 161.749 104.927 161.095L104.796 161.008C104.406 161.618 104.015 162.228 103.689 162.882L103.82 162.97Z" fill="white"/>
<path d="M59.6699 215.066C59.6699 215.066 59.9304 214.892 60.1258 214.805C59.9955 214.848 59.8002 214.892 59.6699 214.935V215.023V215.066Z" fill="white"/>
<path d="M117.365 148.496C116.974 149.106 116.583 149.76 116.258 150.371L116.388 150.458C116.779 149.848 117.169 149.194 117.495 148.583L117.365 148.496Z" fill="white"/>
<path d="M120.427 145.314C120.037 145.925 119.711 146.579 119.32 147.189L119.451 147.276C119.841 146.666 120.167 146.012 120.558 145.402L120.427 145.314Z" fill="white"/>
<path d="M227.289 163.319V162.84L227.158 163.232L227.289 163.319Z" fill="white"/>
<path d="M59.6033 214.98L58.0404 217.204L57.9102 217.291C58.4962 216.55 59.0823 215.852 59.6684 215.111V215.024L59.6033 214.98Z" fill="white"/>
<path d="M866.628 142.438C866.628 142.438 866.303 142.525 866.107 142.568C866.238 142.568 866.368 142.568 866.498 142.525L866.628 142.438Z" fill="white"/>
<path d="M123.55 142.176C123.16 142.83 122.834 143.44 122.443 144.094L122.574 144.181C122.964 143.527 123.29 142.917 123.681 142.263L123.55 142.176Z" fill="white"/>
<path d="M101.74 164.189C101.284 164.8 100.893 165.41 100.438 166.02V166.108C100.958 165.497 101.414 164.887 101.935 164.277L101.805 164.189H101.74Z" fill="white"/>
<path d="M975.833 143.09C976.288 142.479 976.679 141.912 977.135 141.302L977.005 141.215C976.614 141.825 976.158 142.436 975.768 143.002V143.09H975.833Z" fill="white"/>
<path d="M950.438 167.243C950.958 166.633 951.545 165.979 952.065 165.368L951.935 165.281C951.479 165.892 951.024 166.545 950.568 167.156L950.438 167.243Z" fill="white"/>
<path d="M866.566 142.525C866.566 142.525 866.566 142.481 866.697 142.438L866.566 142.525Z" fill="white"/>
<path d="M1022.72 100.148C1023.11 99.5377 1023.57 98.9709 1023.96 98.3606L1023.83 98.2734C1023.44 98.8838 1023.05 99.4505 1022.59 100.061L1022.72 100.148Z" fill="white"/>
<path d="M171.089 101.283C171.48 100.629 171.806 100.019 172.196 99.3646L172.066 99.2773C171.675 99.9313 171.35 100.542 170.959 101.196L171.089 101.283Z" fill="white"/>
<path d="M697.32 139.123L697.059 139.297L697.385 139.21L697.32 139.123Z" fill="white"/>
<path d="M224.033 169.552V169.203C224.033 169.203 223.968 169.377 223.902 169.465L224.033 169.552Z" fill="white"/>
<path d="M126.742 139.078C126.352 139.688 125.961 140.342 125.57 140.953L125.701 141.04C126.091 140.43 126.482 139.776 126.873 139.165L126.742 139.078Z" fill="white"/>
<path d="M58.0407 217.203C58.0407 217.203 57.9754 217.247 57.9102 217.29L58.0407 217.203Z" fill="white"/>
<path d="M980.134 138.076C979.743 138.687 979.287 139.253 978.896 139.863L979.027 139.951C979.417 139.34 979.873 138.774 980.264 138.163L980.134 138.076Z" fill="white"/>
<path d="M839.67 63.791L839.279 63.9218L839.67 63.8345V63.791Z" fill="white"/>
<path d="M130.454 136.857C130.78 136.203 131.171 135.593 131.496 134.939L131.366 134.852C131.041 135.505 130.65 136.116 130.324 136.77L130.454 136.857Z" fill="white"/>
<path d="M75.5577 194.752C75.0367 195.449 74.4506 196.103 73.9297 196.801C73.9297 196.801 73.9297 196.888 73.9948 196.932C74.5158 196.234 75.0367 195.58 75.6228 194.883V194.795L75.5577 194.752Z" fill="white"/>
<path d="M897.236 217.508C896.845 218.162 896.52 218.772 896.129 219.426L896.259 219.513C896.65 218.859 896.975 218.249 897.366 217.595L897.236 217.508Z" fill="white"/>
<path d="M97.3747 169.465C96.8537 170.075 96.3979 170.686 95.877 171.296L96.0072 171.383C96.463 170.773 96.8537 170.162 97.3096 169.596V169.508L97.3747 169.465Z" fill="white"/>
<path d="M986.837 132.627L987.098 132.365L986.707 132.54L986.837 132.627Z" fill="white"/>
<path d="M872.878 130.885C872.878 130.885 872.488 131.016 872.357 131.059C872.488 131.059 872.618 131.016 872.813 130.972L872.944 130.885H872.878Z" fill="white"/>
<path d="M923.805 192.439C923.414 193.05 923.024 193.66 922.633 194.271L922.763 194.358C923.154 193.747 923.544 193.137 923.935 192.527L923.805 192.439Z" fill="white"/>
<path d="M550.409 130.404C549.953 131.233 549.498 132.017 548.977 132.846L549.107 132.933C549.563 132.148 550.018 131.32 550.539 130.535L550.409 130.448V130.404Z" fill="white"/>
<path d="M164.773 106.469C165.164 105.859 165.554 105.248 165.945 104.638L165.815 104.551C165.424 105.161 165.033 105.771 164.643 106.382L164.773 106.469Z" fill="white"/>
<path d="M892.545 221.695C892.089 222.349 891.698 223.002 891.242 223.656V223.787C891.307 223.046 891.307 222.349 891.242 221.607L891.047 221.695C891.568 221.782 892.089 221.825 892.61 221.782L892.48 221.695H892.545Z" fill="white"/>
<path d="M93.9202 172.562C93.4644 173.173 93.0737 173.783 92.6179 174.394L92.5527 174.481C93.0737 173.87 93.5295 173.26 94.0505 172.65L93.9202 172.562Z" fill="white"/>
<path d="M872.748 130.972C872.748 130.972 872.813 130.928 872.879 130.885L872.748 130.972Z" fill="white"/>
<path d="M77.1215 192.396C76.6005 193.181 76.0795 193.922 75.5586 194.707C75.5586 194.707 75.5586 194.794 75.5586 194.838C76.0144 194.053 76.4703 193.268 76.9261 192.484L76.9912 192.396H77.1215Z" fill="white"/>
<path d="M139.246 127.57C138.855 128.181 138.529 128.835 138.139 129.445L138.269 129.532C138.66 128.922 138.985 128.268 139.376 127.657L139.246 127.57Z" fill="white"/>
<path d="M89.5564 177.75C88.9052 178.317 88.3192 178.84 87.668 179.407L87.7331 179.494C88.3192 178.927 88.9052 178.404 89.4262 177.837L89.4913 177.75H89.5564Z" fill="white"/>
<path d="M1045.9 79.5273C1045.38 80.1377 1044.86 80.7917 1044.34 81.4021L1044.21 81.4892C1044.8 80.8789 1045.38 80.2685 1045.97 79.6581V79.571L1045.9 79.5273Z" fill="white"/>
<path d="M246.108 126.829L246.043 126.393L246.108 126.698V126.829Z" fill="white"/>
<path d="M994.654 125.306C995.044 124.739 995.5 124.128 995.891 123.562V123.475C995.37 124.041 994.914 124.652 994.523 125.218L994.654 125.306Z" fill="white"/>
<path d="M142.958 125.347L144.065 123.429L143.935 123.342C143.544 123.996 143.219 124.606 142.828 125.26L142.958 125.347Z" fill="white"/>
<path d="M158.585 111.744C158.976 111.09 159.302 110.479 159.692 109.825L159.562 109.738C159.171 110.392 158.846 111.002 158.455 111.656L158.585 111.744Z" fill="white"/>
<path d="M196.03 81.3589C196.421 80.7486 196.811 80.1819 197.267 79.5715L197.202 79.4844C196.811 80.0947 196.356 80.7049 195.965 81.2717L196.095 81.3589H196.03Z" fill="white"/>
<path d="M1000.38 119.201C999.993 119.812 999.537 120.378 999.146 120.989L999.212 121.076C999.602 120.465 1000.06 119.899 1000.51 119.288L1000.38 119.201Z" fill="white"/>
<path d="M147.648 121.163C148.039 120.553 148.364 119.899 148.755 119.288L148.625 119.201C148.234 119.812 147.908 120.465 147.518 121.076L147.648 121.163Z" fill="white"/>
<path d="M87.738 179.405C87.2821 180.19 86.7612 180.974 86.3053 181.759L86.2402 181.846C86.7612 181.062 87.3473 180.277 87.8682 179.492L87.8031 179.361L87.738 179.405Z" fill="white"/>
<path d="M81.5488 187.033C82.1349 186.423 82.6559 185.813 83.2419 185.203L83.3071 185.115C82.721 185.726 82.2 186.336 81.6139 186.946L81.5488 187.033Z" fill="white"/>
<path d="M930.64 187.078C931.031 186.424 931.487 185.813 931.877 185.159V185.072C931.487 185.726 930.966 186.38 930.51 186.99L930.64 187.078Z" fill="white"/>
<path d="M250.794 117.413L250.729 116.977L250.794 117.325V117.413Z" fill="white"/>
<path d="M1004.03 116.933C1004.03 116.933 1004.29 116.889 1004.49 116.846C1004.29 116.846 1004.1 116.846 1003.97 116.846L1004.1 116.933H1004.03Z" fill="white"/>
<path d="M736.389 115.974L736.91 116.017L736.519 115.887L736.389 115.974Z" fill="white"/>
<path d="M736.519 115.887L736.389 116.192V115.974L736.519 115.887Z" fill="white"/>
<path d="M152.205 116.891C151.619 117.196 151.098 117.545 150.512 117.85L150.642 117.937C151.228 117.632 151.749 117.283 152.335 116.978L152.205 116.891Z" fill="white"/>
<path d="M156.502 112.922C155.916 113.227 155.395 113.576 154.809 113.881L154.939 113.968C155.525 113.663 156.046 113.314 156.632 113.009L156.502 112.922Z" fill="white"/>
<path d="M156.632 113.01C157.283 112.574 157.935 112.138 158.586 111.702L158.456 111.615C157.804 112.051 157.153 112.487 156.502 112.879L156.632 112.967V113.01Z" fill="white"/>
<path d="M1002.47 117.936C1002.99 117.587 1003.51 117.238 1004.03 116.933L1003.9 116.846C1003.38 117.194 1002.86 117.543 1002.34 117.848L1002.47 117.936Z" fill="white"/>
<path d="M148.755 119.245C149.406 118.809 149.993 118.373 150.644 117.937L150.513 117.85C149.862 118.286 149.211 118.721 148.625 119.157L148.755 119.245Z" fill="white"/>
<path d="M472.462 119.069C472.983 118.72 473.504 118.372 474.025 118.023L473.895 117.936C473.374 118.284 472.853 118.633 472.332 119.025L472.462 119.113V119.069Z" fill="white"/>
<path d="M1009.76 110.83L1009.37 110.917L1009.82 110.874L1009.76 110.83Z" fill="white"/>
<path d="M1002.34 117.85C1001.69 118.286 1001.1 118.722 1000.45 119.201L1000.58 119.288C1001.23 118.852 1001.82 118.373 1002.47 117.937L1002.34 117.85Z" fill="white"/>
<path d="M745.638 110.83L745.572 111.092L745.703 110.874L745.638 110.83Z" fill="white"/>
<path d="M1011.72 109.738C1011.06 110.087 1010.41 110.436 1009.76 110.785L1009.89 110.872C1010.48 110.523 1011.06 110.131 1011.65 109.782H1011.78L1011.72 109.738Z" fill="white"/>
<path d="M472.397 118.982C471.876 119.331 471.355 119.68 470.834 120.072L470.964 120.159C471.485 119.811 472.006 119.462 472.527 119.07L472.397 118.982Z" fill="white"/>
<path d="M747.2 109.783C746.679 110.132 746.158 110.437 745.572 110.786L745.702 110.873C746.223 110.524 746.81 110.219 747.33 109.87L747.2 109.783Z" fill="white"/>
<path d="M469.335 121.206C469.856 120.858 470.377 120.465 470.898 120.116L470.768 120.029C470.247 120.378 469.726 120.77 469.205 121.119L469.335 121.206Z" fill="white"/>
<path d="M1011.59 109.784L1011.85 109.609L1011.72 109.74L1011.59 109.784Z" fill="white"/>
<path d="M747.331 109.871C747.852 109.478 748.438 109.086 748.959 108.693C748.373 109.042 747.787 109.391 747.201 109.783L747.331 109.871Z" fill="white"/>
<path d="M147.519 121.075C146.998 121.38 146.412 121.729 145.891 122.034L146.021 122.121C146.607 121.772 147.128 121.467 147.714 121.118L147.584 121.031L147.519 121.075Z" fill="white"/>
<path d="M467.839 122.251C468.36 121.902 468.816 121.553 469.337 121.204L469.207 121.117C468.686 121.466 468.23 121.815 467.709 122.163L467.839 122.251Z" fill="white"/>
<path d="M997.78 122.165C998.301 121.817 998.757 121.468 999.278 121.075L999.213 120.988C998.692 121.337 998.236 121.686 997.715 122.078L997.845 122.165H997.78Z" fill="white"/>
<path d="M144.065 123.473C144.716 123.037 145.367 122.601 145.953 122.165L145.823 122.078C145.172 122.514 144.52 122.95 143.869 123.386L143.999 123.473H144.065Z" fill="white"/>
<path d="M467.772 122.164C467.251 122.513 466.73 122.862 466.209 123.21L466.339 123.298C466.86 122.949 467.381 122.6 467.902 122.251L467.772 122.164Z" fill="white"/>
<path d="M995.891 123.517C996.477 123.081 997.129 122.601 997.78 122.165L997.65 122.078C997.063 122.514 996.412 122.994 995.826 123.43L995.891 123.517Z" fill="white"/>
<path d="M488.027 109.913C488.548 109.565 489.004 109.172 489.524 108.823L489.394 108.736C488.873 109.085 488.417 109.477 487.896 109.826L488.027 109.913Z" fill="white"/>
<path d="M466.213 123.212C465.692 123.56 465.236 123.909 464.715 124.301L464.845 124.345C465.366 123.996 465.822 123.647 466.343 123.255L466.213 123.168V123.212Z" fill="white"/>
<path d="M159.691 109.827C160.212 109.478 160.733 109.129 161.254 108.781L161.123 108.693C160.602 109.042 160.082 109.391 159.561 109.74L159.691 109.827Z" fill="white"/>
<path d="M748.959 108.694L749.22 108.52L748.959 108.694Z" fill="white"/>
<path d="M463.085 125.565C463.671 125.173 464.257 124.78 464.778 124.388C464.778 124.388 464.648 124.344 464.648 124.301C464.062 124.693 463.476 125.085 462.955 125.478L463.085 125.565Z" fill="white"/>
<path d="M491.02 107.646C490.499 107.995 489.978 108.344 489.457 108.736L489.587 108.824C490.108 108.475 490.629 108.126 491.15 107.734L491.02 107.646Z" fill="white"/>
<path d="M141.265 126.349C141.851 126.044 142.372 125.695 142.958 125.39L142.828 125.303C142.242 125.608 141.721 125.957 141.135 126.262L141.265 126.349Z" fill="white"/>
<path d="M161.255 108.781C161.776 108.476 162.362 108.127 162.883 107.822L162.753 107.734C162.232 108.04 161.646 108.388 161.125 108.693L161.255 108.781Z" fill="white"/>
<path d="M994.522 125.217L992.764 126.437H992.829C993.415 126.045 994.001 125.696 994.587 125.304L994.457 125.217H994.522Z" fill="white"/>
<path d="M139.378 127.616C140.029 127.18 140.616 126.744 141.267 126.308L141.137 126.221C140.485 126.657 139.834 127.093 139.248 127.529L139.378 127.616Z" fill="white"/>
<path d="M1014.38 106.602L1014.12 106.732L1014.51 106.689L1014.38 106.602Z" fill="white"/>
<path d="M992.768 126.436H992.377L992.833 126.393L992.768 126.436Z" fill="white"/>
<path d="M492.582 106.557C492.061 106.905 491.54 107.254 491.02 107.647L491.15 107.734C491.671 107.385 492.192 106.993 492.713 106.644L492.582 106.557Z" fill="white"/>
<path d="M164.642 106.383C163.991 106.819 163.405 107.255 162.754 107.734L162.884 107.822C163.535 107.386 164.121 106.95 164.773 106.47L164.642 106.383Z" fill="white"/>
<path d="M713.406 129.577C713.927 129.229 714.448 128.88 714.903 128.488L714.773 128.4C714.252 128.749 713.731 129.142 713.275 129.49L713.406 129.577Z" fill="white"/>
<path d="M1016.34 105.598C1015.69 105.946 1015.04 106.252 1014.45 106.6L1014.58 106.688C1015.17 106.339 1015.75 105.99 1016.34 105.641V105.598Z" fill="white"/>
<path d="M494.08 105.51C493.559 105.859 493.038 106.207 492.582 106.6L492.712 106.687C493.233 106.338 493.754 105.989 494.21 105.597L494.08 105.51Z" fill="white"/>
<path d="M136.251 130.753C136.903 130.361 137.619 129.925 138.27 129.532L138.14 129.445C137.489 129.838 136.837 130.274 136.121 130.666L136.251 130.753Z" fill="white"/>
<path d="M1016.27 105.643L1016.53 105.469L1016.34 105.6L1016.27 105.643Z" fill="white"/>
<path d="M711.449 130.842C712.1 130.406 712.751 130.013 713.402 129.577L713.272 129.49C712.621 129.926 711.97 130.318 711.318 130.754L711.449 130.842Z" fill="white"/>
<path d="M495.773 104.291C495.187 104.683 494.666 105.119 494.08 105.512L494.21 105.599C494.796 105.206 495.317 104.814 495.903 104.422L495.773 104.335V104.291Z" fill="white"/>
<path d="M167.31 103.463C166.789 103.812 166.268 104.16 165.812 104.553L165.943 104.64C166.464 104.291 166.985 103.899 167.44 103.55L167.31 103.463Z" fill="white"/>
<path d="M1019.14 102.459L1018.88 102.546H1019.27L1019.14 102.459Z" fill="white"/>
<path d="M705.458 133.632C705.979 133.283 706.5 132.934 707.021 132.585L706.891 132.498C706.37 132.847 705.849 133.196 705.328 133.544L705.458 133.632Z" fill="white"/>
<path d="M169.006 102.502C168.42 102.807 167.899 103.156 167.312 103.461L167.443 103.548C168.029 103.243 168.55 102.894 169.136 102.589L169.006 102.502Z" fill="white"/>
<path d="M986.709 132.539C986.123 132.931 985.602 133.367 985.016 133.76C985.602 133.411 986.253 133.019 986.839 132.67L986.709 132.583V132.539Z" fill="white"/>
<path d="M131.497 134.939C132.149 134.546 132.8 134.11 133.516 133.718L133.386 133.631C132.735 134.023 132.084 134.459 131.367 134.852L131.497 134.939Z" fill="white"/>
<path d="M705.394 133.543L703.766 134.764C704.352 134.371 704.873 134.022 705.459 133.63L705.328 133.543H705.394Z" fill="white"/>
<path d="M985.014 133.76L984.623 133.804L984.949 133.717L985.014 133.76Z" fill="white"/>
<path d="M1020.7 101.412C1020.18 101.761 1019.66 102.11 1019.14 102.458L1019.27 102.546C1019.79 102.197 1020.31 101.848 1020.83 101.499L1020.7 101.412Z" fill="white"/>
<path d="M703.701 134.764L703.439 134.894L703.766 134.764H703.701Z" fill="white"/>
<path d="M982.087 136.77L982.283 136.596L982.021 136.726L982.087 136.77Z" fill="white"/>
<path d="M130.324 136.768C129.803 137.073 129.217 137.422 128.631 137.727L128.761 137.814C129.347 137.509 129.868 137.161 130.454 136.812L130.324 136.725V136.768Z" fill="white"/>
<path d="M699.338 137.902L699.533 137.771L699.207 137.815L699.338 137.902Z" fill="white"/>
<path d="M169.134 102.59C169.785 102.154 170.437 101.719 171.088 101.283L170.957 101.195C170.306 101.631 169.655 102.067 169.004 102.503L169.134 102.59Z" fill="white"/>
<path d="M982.021 136.725C981.37 137.161 980.784 137.64 980.133 138.076L980.263 138.163C980.914 137.727 981.5 137.248 982.151 136.812L982.021 136.725Z" fill="white"/>
<path d="M126.873 139.167C127.524 138.731 128.175 138.295 128.762 137.859L128.631 137.771C127.98 138.207 127.329 138.643 126.678 139.079L126.808 139.167H126.873Z" fill="white"/>
<path d="M1022.59 100.062C1021.94 100.498 1021.35 100.978 1020.7 101.414L1020.83 101.501C1021.48 101.065 1022.07 100.586 1022.72 100.15L1022.59 100.062Z" fill="white"/>
<path d="M697.386 139.21C698.037 138.774 698.623 138.338 699.275 137.902L699.144 137.814C698.493 138.25 697.907 138.686 697.256 139.122L697.386 139.21Z" fill="white"/>
<path d="M763.091 101.456L763.287 101.281L763.025 101.412L763.091 101.456Z" fill="white"/>
<path d="M977.07 141.304C977.721 140.868 978.307 140.388 978.958 139.953L978.828 139.865C978.177 140.301 977.591 140.781 976.939 141.217L977.07 141.304Z" fill="white"/>
<path d="M123.681 142.261C124.332 141.869 124.983 141.433 125.7 141.04L125.569 140.953C124.918 141.345 124.267 141.781 123.551 142.217L123.681 142.305V142.261Z" fill="white"/>
<path d="M173.631 98.2734C173.11 98.6222 172.589 98.9709 172.068 99.3197L172.199 99.4068C172.72 99.0581 173.241 98.7093 173.827 98.3606L173.696 98.2734H173.631Z" fill="white"/>
<path d="M1025.39 97.2285C1024.87 97.5773 1024.35 97.9261 1023.89 98.2749L1024.02 98.362C1024.54 98.0133 1025.06 97.6646 1025.58 97.3158L1025.45 97.2285H1025.39Z" fill="white"/>
<path d="M508.213 97.2715C507.692 97.6202 507.171 97.9691 506.65 98.2742L506.781 98.3614C507.302 98.0126 507.823 97.6638 508.344 97.3586L508.213 97.2715Z" fill="white"/>
<path d="M173.757 98.3189C174.278 97.9702 174.799 97.6215 175.32 97.2727L175.19 97.1855C174.669 97.5343 174.148 97.883 173.627 98.2318L173.757 98.3189Z" fill="white"/>
<path d="M1025.45 97.2735C1026.04 96.9247 1026.63 96.5324 1027.21 96.1836C1026.56 96.5324 1025.98 96.8812 1025.32 97.1863L1025.45 97.2735Z" fill="white"/>
<path d="M975.702 143.004C975.116 143.396 974.595 143.789 974.008 144.181H973.943C974.529 143.832 975.181 143.44 975.767 143.091L975.702 143.004Z" fill="white"/>
<path d="M122.444 144.092C121.793 144.484 121.077 144.92 120.426 145.312L120.556 145.4C121.207 145.007 121.924 144.571 122.575 144.179L122.444 144.092Z" fill="white"/>
<path d="M508.342 97.3606C508.863 97.0119 509.319 96.6195 509.84 96.2707L509.71 96.1836C509.254 96.5324 508.733 96.9247 508.277 97.2735L508.408 97.3606H508.342Z" fill="white"/>
<path d="M974.078 144.182L973.752 144.269L974.013 144.182H974.078Z" fill="white"/>
<path d="M176.818 96.2266C176.297 96.5317 175.711 96.8805 175.125 97.1857L175.255 97.2728C175.776 96.9676 176.362 96.6189 176.883 96.3137L176.753 96.2266H176.818Z" fill="white"/>
<path d="M1027.21 96.1809L1027.6 96.0938L1027.28 96.1809H1027.21Z" fill="white"/>
<path d="M119.382 147.23C118.731 147.666 118.08 148.059 117.363 148.495L117.494 148.582C118.145 148.146 118.796 147.754 119.512 147.318L119.382 147.23Z" fill="white"/>
<path d="M428.702 147.145C428.181 147.493 427.595 147.799 427.074 148.147L427.204 148.234C427.725 147.886 428.246 147.58 428.832 147.232L428.702 147.145Z" fill="white"/>
<path d="M969.322 148.626C969.973 148.19 970.559 147.711 971.21 147.275L971.08 147.188C970.429 147.623 969.843 148.059 969.191 148.539L969.322 148.626Z" fill="white"/>
<path d="M511.468 94.873C510.882 95.309 510.231 95.7449 509.645 96.1809L509.775 96.268C510.361 95.832 511.012 95.3961 511.598 94.9602L511.468 94.873Z" fill="white"/>
<path d="M176.951 96.3116C177.602 95.8757 178.188 95.3961 178.839 94.9602L178.709 94.873C178.058 95.309 177.472 95.7449 176.82 96.2245L176.951 96.3116Z" fill="white"/>
<path d="M427.073 148.146C426.421 148.582 425.77 149.018 425.119 149.454L425.249 149.541C425.901 149.105 426.487 148.67 427.138 148.277L427.008 148.19L427.073 148.146Z" fill="white"/>
<path d="M1030.15 93.0879L1029.88 93.175H1030.21L1030.15 93.0879Z" fill="white"/>
<path d="M777.156 94.0443L777.416 93.957L777.025 94.0443H777.156Z" fill="white"/>
<path d="M116.192 150.328C115.541 150.764 114.889 151.2 114.238 151.592L114.369 151.68C115.02 151.244 115.671 150.808 116.322 150.415L116.192 150.328Z" fill="white"/>
<path d="M967.954 150.328C967.302 150.764 966.651 151.2 966 151.636L966.13 151.723C966.781 151.287 967.433 150.851 968.084 150.415L967.954 150.328Z" fill="white"/>
<path d="M1030.21 93.1745C1030.73 92.8258 1031.25 92.4771 1031.77 92.1283L1031.64 92.041C1031.12 92.3898 1030.6 92.7386 1030.08 93.0874L1030.21 93.1745Z" fill="white"/>
<path d="M181.444 91.998C180.923 92.3468 180.402 92.6955 179.881 93.0443L180.011 93.1314C180.532 92.7827 181.053 92.434 181.574 92.0852L181.444 91.998Z" fill="white"/>
<path d="M1031.77 92.0831C1032.42 91.6472 1033.01 91.1676 1033.66 90.7317L1033.53 90.6445C1032.88 91.0805 1032.29 91.56 1031.64 91.996L1031.77 92.0831Z" fill="white"/>
<path d="M183.008 90.9512C182.487 91.2999 181.966 91.6488 181.445 91.9976L181.576 92.0847C182.097 91.7359 182.617 91.3872 183.138 91.0384L183.008 90.9512Z" fill="white"/>
<path d="M113.067 153.467C112.416 153.903 111.764 154.339 111.113 154.775L111.244 154.862C111.895 154.426 112.546 153.99 113.197 153.554L113.067 153.467Z" fill="white"/>
<path d="M963.072 154.6C963.723 154.251 964.375 153.946 965.026 153.597L964.896 153.51C964.31 153.859 963.723 154.207 963.137 154.556L963.072 154.6Z" fill="white"/>
<path d="M184.632 89.9473C184.111 90.296 183.525 90.6011 183.004 90.9499L183.134 91.0372C183.655 90.732 184.241 90.3832 184.762 90.0344L184.632 89.9473Z" fill="white"/>
<path d="M184.761 90.0338C185.412 89.5978 186.063 89.1619 186.65 88.7259L186.519 88.6387C185.868 89.0746 185.217 89.5107 184.631 89.9466L184.761 90.0338Z" fill="white"/>
<path d="M963.135 154.557L962.809 154.687L963.07 154.6L963.135 154.557Z" fill="white"/>
<path d="M108.117 158C108.768 157.564 109.419 157.129 110.07 156.693L109.94 156.605C109.289 157.041 108.638 157.477 107.986 157.913L108.117 158Z" fill="white"/>
<path d="M666.386 157.695C666.907 157.347 667.493 157.041 668.014 156.693L667.884 156.605C667.363 156.954 666.777 157.259 666.256 157.608L666.386 157.695Z" fill="white"/>
<path d="M959.945 157.739L960.206 157.652H960.011L959.945 157.739Z" fill="white"/>
<path d="M1034.9 88.946C1035.42 88.5973 1035.94 88.2485 1036.46 87.8998L1036.33 87.8125C1035.81 88.1613 1035.29 88.5101 1034.77 88.8589L1034.9 88.946Z" fill="white"/>
<path d="M1036.46 87.942C1037.05 87.5061 1037.63 87.0701 1038.15 86.6777H1038.02C1037.44 87.1137 1036.85 87.506 1036.27 87.8548L1036.4 87.942H1036.46Z" fill="white"/>
<path d="M666.258 157.607C665.737 158 665.216 158.349 664.695 158.741L664.826 158.828C665.346 158.479 665.867 158.087 666.388 157.738L666.258 157.651V157.607Z" fill="white"/>
<path d="M960.013 157.652L959.752 157.827L959.948 157.739L960.013 157.652Z" fill="white"/>
<path d="M663.065 159.876C663.651 159.527 664.237 159.178 664.823 158.829L664.693 158.742C664.107 159.091 663.586 159.44 663 159.788L663.065 159.876Z" fill="white"/>
<path d="M106.818 159.789C106.166 160.225 105.515 160.617 104.799 161.053L104.929 161.141C105.58 160.705 106.231 160.312 106.948 159.876L106.818 159.789Z" fill="white"/>
<path d="M956.754 160.921H957.21L956.819 160.877L956.754 160.921Z" fill="white"/>
<path d="M1038.22 86.6348C1038.22 86.6348 1038.48 86.722 1038.61 86.7655C1038.48 86.7655 1038.28 86.722 1038.15 86.6784L1038.28 86.6348H1038.22Z" fill="white"/>
<path d="M792.72 85.6758L792.459 85.7631L792.72 85.7194V85.6758Z" fill="white"/>
<path d="M956.82 160.877L956.689 161.095L956.755 160.921L956.82 160.877Z" fill="white"/>
<path d="M187.888 86.8958C188.409 86.547 188.865 86.1547 189.386 85.8059L189.256 85.7188C188.735 86.0675 188.279 86.4599 187.758 86.8086L187.823 86.8958H187.888Z" fill="white"/>
<path d="M101.865 164.279C102.516 163.843 103.168 163.407 103.819 163.015L103.689 162.928C103.037 163.364 102.386 163.8 101.67 164.192L101.8 164.279H101.865Z" fill="white"/>
<path d="M792.715 85.72L792.976 85.502L792.715 85.6764V85.72Z" fill="white"/>
<path d="M405.386 164.147C405.907 163.798 406.428 163.45 406.949 163.101L406.819 163.014C406.298 163.362 405.777 163.711 405.256 164.06L405.386 164.147Z" fill="white"/>
<path d="M954.019 164.016L954.215 163.842L953.889 163.929L954.019 164.016Z" fill="white"/>
<path d="M405.323 164.061L403.695 165.107L403.826 165.194C404.346 164.845 404.933 164.496 405.454 164.191L405.323 164.104V164.061Z" fill="white"/>
<path d="M953.89 163.93C953.239 164.366 952.588 164.802 952.002 165.281L952.132 165.368C952.783 164.932 953.435 164.496 954.021 164.017L953.89 163.93Z" fill="white"/>
<path d="M403.697 165.062C403.176 165.411 402.655 165.76 402.199 166.109L402.329 166.196C402.85 165.847 403.371 165.499 403.827 165.15L403.697 165.062Z" fill="white"/>
<path d="M189.388 85.8053C189.909 85.4565 190.43 85.1078 190.951 84.759L190.821 84.6719C190.3 85.0206 189.779 85.3694 189.258 85.7181L189.388 85.8053Z" fill="white"/>
<path d="M100.435 165.979L100.305 166.24L100.37 166.066L100.435 165.979Z" fill="white"/>
<path d="M400.701 167.199C401.222 166.85 401.742 166.502 402.263 166.197L402.133 166.109C401.612 166.458 401.091 166.763 400.57 167.112L400.701 167.199Z" fill="white"/>
<path d="M652.253 167.2C652.774 166.851 653.295 166.502 653.816 166.154L653.686 166.066C653.165 166.415 652.644 166.764 652.123 167.113L652.253 167.2Z" fill="white"/>
<path d="M399.07 168.246C399.591 167.897 400.112 167.549 400.633 167.243L400.502 167.156C399.981 167.505 399.46 167.854 398.939 168.159L399.07 168.246Z" fill="white"/>
<path d="M190.953 84.7149C191.473 84.3661 191.994 84.061 192.58 83.7123L192.45 83.625C191.929 83.9738 191.408 84.279 190.822 84.6277L190.953 84.7149Z" fill="white"/>
<path d="M650.693 168.245C651.214 167.896 651.735 167.547 652.256 167.199L652.125 167.111C651.604 167.46 651.083 167.809 650.562 168.158L650.693 168.245Z" fill="white"/>
<path d="M950.568 167.156L950.503 167.418L950.438 167.243L950.568 167.156Z" fill="white"/>
<path d="M97.3105 169.553L97.4411 169.291L97.3758 169.465L97.3105 169.553Z" fill="white"/>
<path d="M399.006 168.158L397.508 169.204L397.638 169.292C398.159 168.943 398.615 168.594 399.136 168.245L399.006 168.158Z" fill="white"/>
<path d="M650.629 168.158C650.108 168.507 649.587 168.856 649.066 169.204L649.197 169.292C649.718 168.943 650.239 168.594 650.76 168.245L650.629 168.158Z" fill="white"/>
<path d="M397.508 169.203C396.922 169.508 396.336 169.813 395.75 170.119L395.88 170.206C396.466 169.901 397.052 169.595 397.638 169.29L397.508 169.203Z" fill="white"/>
<path d="M649.065 169.203L647.502 170.249L647.632 170.337C648.153 169.988 648.674 169.639 649.13 169.29L649 169.203H649.065Z" fill="white"/>
<path d="M192.578 83.7129C193.098 83.3642 193.619 83.059 194.205 82.7102L194.075 82.623C193.554 82.9718 193.033 83.2769 192.447 83.6257L192.578 83.7129Z" fill="white"/>
<path d="M394.581 171.385C395.037 170.993 395.428 170.601 395.884 170.208L395.754 170.121C395.298 170.513 394.907 170.949 394.451 171.342L394.581 171.385Z" fill="white"/>
<path d="M647.504 170.25C646.983 170.599 646.462 170.948 645.941 171.296L646.072 171.384C646.593 171.035 647.114 170.686 647.635 170.337L647.504 170.25Z" fill="white"/>
<path d="M95.8755 171.252C95.2243 171.688 94.5731 172.124 93.9219 172.56L94.0521 172.647C94.7033 172.211 95.3545 171.775 96.0057 171.339L95.8755 171.252Z" fill="white"/>
<path d="M394.45 171.34C393.799 171.645 393.213 171.907 392.562 172.212L392.432 172.299C393.148 171.994 393.864 171.689 394.581 171.427L394.45 171.383V171.34Z" fill="white"/>
<path d="M644.505 172.43C645.026 172.082 645.547 171.733 646.068 171.384L645.938 171.297C645.417 171.646 644.896 171.994 644.375 172.343L644.505 172.43Z" fill="white"/>
<path d="M1044.34 81.4023C1044.34 81.4023 1044.34 81.4459 1044.21 81.4895L1044.34 81.4023Z" fill="white"/>
<path d="M392.562 172.213L392.432 172.387L392.497 172.3L392.562 172.213Z" fill="white"/>
<path d="M642.943 173.475C643.464 173.127 643.985 172.778 644.506 172.429L644.375 172.342C643.854 172.691 643.333 173.039 642.812 173.345L642.943 173.432V173.475Z" fill="white"/>
<path d="M642.813 173.389C642.292 173.737 641.771 174.086 641.25 174.435L641.38 174.522C641.901 174.173 642.422 173.825 642.943 173.476L642.813 173.389Z" fill="white"/>
<path d="M942.754 174.48L943.015 174.393L942.819 174.48H942.754Z" fill="white"/>
<path d="M92.6236 174.393L92.4277 174.611L92.5583 174.48L92.6236 174.393Z" fill="white"/>
<path d="M639.816 175.569C640.337 175.22 640.858 174.871 641.379 174.523L641.248 174.436C640.727 174.784 640.207 175.133 639.686 175.482L639.816 175.569Z" fill="white"/>
<path d="M942.819 174.479L942.492 174.609L942.753 174.479H942.819Z" fill="white"/>
<path d="M194.142 82.7102C194.793 82.2743 195.379 81.8383 196.03 81.3588L195.9 81.2715C195.249 81.7074 194.663 82.1435 194.012 82.6231L194.142 82.7102Z" fill="white"/>
<path d="M639.688 175.48C639.167 175.829 638.646 176.178 638.125 176.527L638.255 176.614C638.776 176.265 639.297 175.916 639.818 175.568L639.688 175.48Z" fill="white"/>
<path d="M89.4922 177.879L89.5575 177.617V177.748L89.4922 177.879Z" fill="white"/>
<path d="M638.121 176.527C637.6 176.876 637.08 177.225 636.559 177.574L636.689 177.661C637.21 177.312 637.731 176.963 638.252 176.615L638.121 176.527Z" fill="white"/>
<path d="M939.562 177.661L939.953 177.617H939.693L939.562 177.661Z" fill="white"/>
<path d="M636.561 177.617C636.04 177.966 635.519 178.315 634.998 178.664L635.128 178.751C635.649 178.402 636.17 178.053 636.756 177.704L636.626 177.617H636.561Z" fill="white"/>
<path d="M939.693 177.617L939.432 177.792L939.562 177.661L939.693 177.617Z" fill="white"/>
<path d="M634.998 178.664C634.477 179.013 633.957 179.362 633.436 179.71L633.566 179.797C634.087 179.449 634.608 179.1 635.129 178.751L634.998 178.664Z" fill="white"/>
<path d="M1047.2 78.3503C1046.75 78.7426 1046.36 79.135 1045.9 79.4838V79.5709C1046.36 79.1786 1046.81 78.7863 1047.27 78.3939L1047.14 78.3066L1047.2 78.3503Z" fill="white"/>
<path d="M633.436 179.711C632.915 180.06 632.394 180.408 631.873 180.757L632.003 180.844C632.524 180.496 633.045 180.147 633.566 179.798L633.436 179.711Z" fill="white"/>
<path d="M936.828 180.756L936.958 180.582L936.697 180.669L936.828 180.756Z" fill="white"/>
<path d="M380.514 181.891C380.97 181.498 381.491 181.149 381.946 180.757L381.816 180.67C381.295 181.062 380.839 181.411 380.318 181.803L380.449 181.891H380.514Z" fill="white"/>
<path d="M631.871 180.756L630.309 181.802L630.439 181.889C630.96 181.541 631.481 181.192 632.002 180.843L631.871 180.756Z" fill="white"/>
<path d="M936.698 180.67C936.112 181.062 935.526 181.498 934.939 181.891H935.07C935.656 181.498 936.242 181.106 936.828 180.757L936.698 180.67Z" fill="white"/>
<path d="M86.3024 181.76V182.065L86.1719 181.891L86.3024 181.76Z" fill="white"/>
<path d="M380.383 181.805C379.797 182.11 379.211 182.415 378.625 182.72V182.807C379.276 182.502 379.927 182.197 380.513 181.892L380.383 181.805Z" fill="white"/>
<path d="M808.152 78.3945L808.021 78.6125L808.283 78.4817L808.152 78.3945Z" fill="white"/>
<path d="M630.246 181.805C629.726 182.153 629.205 182.502 628.684 182.851L628.814 182.938C629.335 182.589 629.856 182.241 630.377 181.892L630.246 181.805Z" fill="white"/>
<path d="M934.937 181.891C934.937 181.891 934.676 181.803 934.611 181.76C934.742 181.76 934.937 181.803 935.067 181.847L934.937 181.891Z" fill="white"/>
<path d="M628.746 182.85C628.225 183.155 627.705 183.46 627.184 183.809L627.314 183.896C627.835 183.591 628.356 183.242 628.877 182.937L628.746 182.85Z" fill="white"/>
<path d="M83.2422 185.205L83.438 184.943L83.3727 185.118L83.2422 185.205Z" fill="white"/>
<path d="M627.186 183.766C626.665 184.114 626.144 184.507 625.623 184.899L625.753 184.986C626.274 184.638 626.795 184.245 627.316 183.896L627.186 183.809V183.766Z" fill="white"/>
<path d="M931.877 185.16L931.942 184.898V185.073L931.877 185.16Z" fill="white"/>
<path d="M198.636 78.3945C198.18 78.7433 197.659 79.1357 197.203 79.4844L197.268 79.5716C197.789 79.2228 198.245 78.8304 198.766 78.4817L198.636 78.3945Z" fill="white"/>
<path d="M1047.33 78.4382C1047.92 78.0894 1048.51 77.7843 1049.09 77.4355C1048.44 77.6971 1047.79 78.0458 1047.2 78.351L1047.33 78.4382Z" fill="white"/>
<path d="M624.126 186.032C624.647 185.683 625.168 185.334 625.689 184.986L625.559 184.898C625.038 185.247 624.517 185.596 623.996 185.945L624.126 186.032Z" fill="white"/>
<path d="M809.844 77.3477C809.257 77.6964 808.736 78.0453 808.15 78.394L808.281 78.4812C808.802 78.1324 809.388 77.7401 809.909 77.3913H809.844V77.3477Z" fill="white"/>
<path d="M200.194 77.3477C199.673 77.6964 199.152 78.0453 198.631 78.394L198.761 78.4812C199.282 78.1324 199.803 77.7837 200.324 77.4349L200.194 77.3477Z" fill="white"/>
<path d="M622.56 187.079C623.081 186.73 623.602 186.381 624.123 186.033L623.993 185.945C623.472 186.294 622.951 186.643 622.43 186.992L622.56 187.079Z" fill="white"/>
<path d="M1049.09 77.4342L1049.29 77.2598L1049.16 77.3905L1049.09 77.4342Z" fill="white"/>
<path d="M81.6794 186.947L81.5488 187.209V187.034L81.6794 186.947Z" fill="white"/>
<path d="M622.497 186.99C621.976 187.339 621.455 187.688 620.869 188.037L620.999 188.124C621.52 187.775 622.041 187.426 622.627 187.078L622.497 186.99Z" fill="white"/>
<path d="M930.51 187.035C929.924 187.34 929.338 187.689 928.752 187.994C929.403 187.733 930.054 187.428 930.706 187.122L930.575 187.035H930.51Z" fill="white"/>
<path d="M200.328 77.4363C200.848 77.0875 201.369 76.7386 201.89 76.3899L201.76 76.3027C201.239 76.6515 200.718 77.0002 200.197 77.349L200.328 77.4363Z" fill="white"/>
<path d="M620.868 187.994C620.347 188.343 619.826 188.692 619.305 189.084L619.435 189.171C619.956 188.822 620.477 188.474 620.998 188.125L620.868 188.038V187.994Z" fill="white"/>
<path d="M928.751 187.994L928.49 188.169L928.686 188.038L928.751 187.994Z" fill="white"/>
<path d="M619.306 189.084C618.785 189.389 618.264 189.694 617.678 190.043L617.808 190.13C618.329 189.825 618.85 189.476 619.371 189.171L619.241 189.084H619.306Z" fill="white"/>
<path d="M203.323 75.2559C202.802 75.6046 202.281 75.9533 201.76 76.2585L201.89 76.3457C202.411 75.997 202.932 75.6482 203.453 75.343L203.323 75.2559Z" fill="white"/>
<path d="M616.376 191.264C616.897 190.871 617.353 190.522 617.874 190.13L617.744 190.043C617.223 190.435 616.767 190.828 616.246 191.22L616.376 191.307V191.264Z" fill="white"/>
<path d="M77.0547 192.484L77.12 192.266V192.396L77.0547 192.484Z" fill="white"/>
<path d="M367.815 191.221C367.295 191.569 366.774 191.875 366.188 192.223L366.318 192.311C366.839 191.962 367.36 191.613 367.946 191.308L367.815 191.221Z" fill="white"/>
<path d="M616.243 191.178C615.657 191.483 615.006 191.744 614.42 192.05V192.18C615.071 191.875 615.722 191.57 616.373 191.265L616.243 191.178Z" fill="white"/>
<path d="M925.756 191.133C925.105 191.569 924.453 192.005 923.867 192.484L923.997 192.572C924.649 192.136 925.3 191.7 925.886 191.22L925.756 191.133Z" fill="white"/>
<path d="M814.597 75.3861C815.118 74.9501 815.639 74.5577 816.16 74.1218L816.03 74.0781C815.509 74.4705 814.988 74.9064 814.467 75.2988L814.597 75.3861Z" fill="white"/>
<path d="M366.186 192.223C365.665 192.528 365.144 192.877 364.623 193.182L364.753 193.27C365.274 192.921 365.795 192.616 366.316 192.267L366.186 192.18V192.223Z" fill="white"/>
<path d="M203.453 75.3425C203.973 74.9937 204.494 74.645 205.015 74.2963L204.885 74.209C204.364 74.5577 203.843 74.9066 203.322 75.2554L203.453 75.3425Z" fill="white"/>
<path d="M362.799 194.533C363.45 194.097 364.036 193.705 364.687 193.269L364.557 193.182C363.906 193.618 363.255 194.01 362.604 194.446L362.734 194.533H362.799Z" fill="white"/>
<path d="M1053.52 73.207L1053.26 73.2942L1053.65 73.2505L1053.52 73.207Z" fill="white"/>
<path d="M205.015 74.3403C205.666 73.9043 206.317 73.4684 206.969 73.0325L206.838 72.9453C206.187 73.3813 205.536 73.8172 204.885 74.2531L205.015 74.3403Z" fill="white"/>
<path d="M1055.09 72.1172C1054.57 72.466 1054.04 72.8147 1053.52 73.1634L1053.65 73.2506C1054.17 72.9018 1054.7 72.5531 1055.22 72.2043L1055.09 72.1172Z" fill="white"/>
<path d="M920.809 195.623C921.46 195.187 922.111 194.795 922.762 194.359L922.632 194.271C921.981 194.707 921.33 195.1 920.613 195.536L920.744 195.623H920.809Z" fill="white"/>
<path d="M1056.84 71.0261C1056.26 71.3748 1055.67 71.7671 1055.08 72.1595L1055.21 72.2467C1055.8 71.8108 1056.39 71.4184 1056.97 70.9824H1056.84V71.0261Z" fill="white"/>
<path d="M1056.97 70.9395C1056.97 70.9395 1057.23 71.0266 1057.3 71.0702C1057.17 71.0702 1056.97 71.0267 1056.84 70.9831L1056.97 70.9395Z" fill="white"/>
<path d="M919.573 197.455C918.987 197.804 918.401 198.153 917.814 198.501C918.466 198.196 919.117 197.891 919.768 197.542L919.638 197.455H919.573Z" fill="white"/>
<path d="M209.704 70.1133C210.225 69.7646 210.746 69.4595 211.332 69.1107L211.202 69.0234C210.681 69.3722 210.16 69.6774 209.574 70.0262L209.704 70.1133Z" fill="white"/>
<path d="M917.816 198.5L917.555 198.631L917.751 198.544L917.816 198.5Z" fill="white"/>
<path d="M356.939 199.59C356.418 199.895 355.832 200.244 355.311 200.549L355.441 200.636C356.027 200.331 356.548 199.982 357.134 199.677L357.004 199.59H356.939Z" fill="white"/>
<path d="M70.6766 200.594L70.6113 200.855V200.681L70.6766 200.594Z" fill="white"/>
<path d="M355.246 200.549C354.725 200.898 354.205 201.246 353.684 201.595L353.814 201.682C354.335 201.334 354.856 200.985 355.377 200.636L355.246 200.549Z" fill="white"/>
<path d="M353.685 201.596C353.164 201.944 352.578 202.293 352.057 202.642L352.187 202.729C352.708 202.38 353.294 202.032 353.815 201.683L353.685 201.596Z" fill="white"/>
<path d="M1059.64 67.8438L1059.38 68.0182L1059.77 67.8874L1059.64 67.8438Z" fill="white"/>
<path d="M914.689 201.553L914.559 201.771L914.689 201.64V201.553Z" fill="white"/>
<path d="M212.637 67.8444C212.181 68.2368 211.725 68.6292 211.27 68.9779L211.4 69.0651C211.856 68.6727 212.377 68.2804 212.832 67.8881L212.702 67.8008L212.637 67.8444Z" fill="white"/>
<path d="M350.687 203.732C351.208 203.384 351.729 203.035 352.25 202.73L352.119 202.643C351.599 202.991 351.078 203.34 350.557 203.645L350.687 203.732Z" fill="white"/>
<path d="M348.995 204.822C349.582 204.473 350.103 204.081 350.689 203.732L350.558 203.645C350.037 204.037 349.451 204.473 348.865 204.865H348.93L348.995 204.822Z" fill="white"/>
<path d="M911.82 204.822L912.08 204.691L911.689 204.735L911.82 204.822Z" fill="white"/>
<path d="M348.865 204.864H348.475L348.996 204.82L348.865 204.864Z" fill="white"/>
<path d="M909.869 206.129C910.52 205.693 911.171 205.3 911.822 204.864L911.692 204.777C911.041 205.213 910.389 205.606 909.738 206.042L909.869 206.129Z" fill="white"/>
<path d="M1059.77 67.8869C1060.42 67.6689 1061.07 67.4074 1061.73 67.1894V67.0586C1061.07 67.3202 1060.36 67.5817 1059.71 67.7996L1059.84 67.8433L1059.77 67.8869Z" fill="white"/>
<path d="M214.263 66.8867C213.742 67.1919 213.156 67.5407 212.635 67.8458L212.765 67.933C213.286 67.6278 213.872 67.279 214.393 66.9739L214.263 66.8867Z" fill="white"/>
<path d="M907.132 209.007C907.653 208.658 908.174 208.309 908.76 207.96L908.63 207.873C908.109 208.222 907.588 208.571 907.002 208.919L907.132 209.007Z" fill="white"/>
<path d="M342.678 210.055L342.874 209.924L342.678 210.011V210.055Z" fill="white"/>
<path d="M905.177 210.271C905.828 209.835 906.48 209.443 907.131 209.007L907 208.92C906.349 209.356 905.698 209.748 905.047 210.184L905.177 210.271Z" fill="white"/>
<path d="M1062.57 65.5352C1062.25 66.0583 1061.99 66.5379 1061.66 67.061V67.1918C1061.99 66.6687 1062.31 66.1454 1062.7 65.6223L1062.57 65.5352Z" fill="white"/>
<path d="M342.677 210.01L342.416 210.141L342.677 210.053V210.01Z" fill="white"/>
<path d="M215.827 65.8398C215.306 66.1886 214.785 66.5373 214.264 66.8861L214.394 66.9732C214.915 66.6245 215.436 66.2758 215.957 65.927L215.827 65.8398Z" fill="white"/>
<path d="M904.007 212.146C903.421 212.452 902.835 212.757 902.184 213.062V213.149C902.835 212.844 903.486 212.539 904.137 212.234L904.007 212.146Z" fill="white"/>
<path d="M1062.77 65.5777C1063.49 65.2725 1064.2 64.9673 1064.85 64.6621H1064.72C1064.72 65.0545 1064.72 65.4904 1064.72 65.8828L1064.92 65.7956C1064.14 65.7084 1063.42 65.6649 1062.64 65.5777L1062.77 65.6212V65.5777Z" fill="white"/>
<path d="M584.922 214.282L585.248 214.239L584.987 214.195L584.922 214.282Z" fill="white"/>
<path d="M902.186 213.062L901.99 213.281L902.186 213.15V213.062Z" fill="white"/>
<path d="M584.986 214.195L584.855 214.457L584.921 214.282L584.986 214.195Z" fill="white"/>
<path d="M217.389 64.793C216.868 65.1417 216.347 65.4906 215.826 65.8394L215.956 65.9265C216.477 65.5777 216.998 65.229 217.519 64.8802L217.389 64.793Z" fill="white"/>
<path d="M899.188 216.244C898.537 216.68 897.886 217.072 897.234 217.508L897.365 217.596C898.016 217.16 898.667 216.767 899.318 216.331L899.188 216.244Z" fill="white"/>
<path d="M217.521 64.8796C218.042 64.5309 218.563 64.182 219.084 63.8332L218.953 63.7461C218.433 64.0949 217.912 64.4436 217.391 64.7923L217.521 64.8796Z" fill="white"/>
<path d="M839.672 63.8344L839.933 63.6602L839.672 63.7909V63.8344Z" fill="white"/>
<path d="M894.634 220.516C895.155 220.167 895.741 219.818 896.262 219.513L896.132 219.426C895.611 219.775 895.025 220.123 894.504 220.429L894.634 220.516Z" fill="white"/>
<path d="M219.079 63.8346C219.6 63.4858 220.121 63.1371 220.642 62.7883L220.512 62.7012C219.991 63.0499 219.47 63.3987 218.949 63.7474L219.079 63.8346Z" fill="white"/>
<path d="M220.646 62.7877C221.297 62.3517 221.948 61.9158 222.599 61.4799L222.469 61.3926C221.818 61.8285 221.167 62.2646 220.516 62.7005L220.646 62.7877Z" fill="white"/>
<path d="M894.499 220.473C893.847 220.865 893.196 221.301 892.545 221.693L892.675 221.78C893.326 221.388 893.977 220.952 894.629 220.56L894.499 220.473Z" fill="white"/>
<path d="M891.244 223.654C890.658 224.047 890.137 224.395 889.551 224.788L889.681 224.831C890.202 224.483 890.723 224.134 891.309 223.785V223.654H891.244Z" fill="white"/>
<path d="M320.799 227.752L320.668 228.057L320.733 227.839L320.799 227.752Z" fill="white"/>
<path d="M566.167 227.709L565.971 227.883L566.167 227.796V227.709Z" fill="white"/>
<path d="M886.557 227.84C886.036 228.232 885.515 228.581 884.994 228.973V229.017C885.515 228.668 886.036 228.319 886.622 227.927L886.557 227.84Z" fill="white"/>
<path d="M884.995 228.973C884.474 228.973 883.888 228.973 883.367 228.973V229.016C883.953 229.016 884.474 229.016 885.06 229.016L884.995 228.973Z" fill="white"/>
<path d="M882.386 232.374L882.582 232.199L882.256 232.286L882.386 232.374Z" fill="white"/>
<path d="M559.914 233.116H560.24L559.979 233.029L559.914 233.116Z" fill="white"/>
<path d="M882.258 232.287C881.606 232.549 880.955 232.81 880.304 233.115V233.202C880.369 232.81 880.304 232.418 880.304 232.025L880.174 232.113C880.89 232.2 881.606 232.287 882.323 232.374L882.193 232.287H882.258Z" fill="white"/>
<path d="M559.982 233.029L559.852 233.334L559.917 233.116L559.982 233.029Z" fill="white"/>
<path d="M880.306 233.114C879.72 233.506 879.199 233.855 878.613 234.247L878.744 234.291C878.744 233.899 878.744 233.506 878.744 233.07L878.613 233.158C879.199 233.158 879.785 233.158 880.372 233.158V233.07L880.306 233.114Z" fill="white"/>
<path d="M286.542 255C286.021 255.349 285.5 255.654 284.914 256.003L285.044 256.09C285.565 255.741 286.151 255.436 286.672 255.087L286.542 255Z" fill="white"/>
<path d="M284.917 256.002C284.331 256.438 283.68 256.874 283.094 257.31L283.224 257.397C283.81 256.961 284.461 256.525 285.047 256.133L284.917 256.046V256.002Z" fill="white"/>
<path d="M267.336 239.961C266.88 240.005 266.359 240.179 266.033 240.048C265.708 239.917 265.643 239.525 265.447 239.22C266.033 239.133 266.619 239.089 267.205 239.002C267.205 239.307 267.271 239.612 267.336 239.917V239.961Z" fill="white"/>
<path d="M192.578 143.133L192.774 143.264L192.578 143.09V143.133Z" fill="white"/>
<path d="M864.739 75.082C864.218 76.1719 863.632 77.2618 863.111 78.3953C863.632 77.3054 864.218 76.2155 864.739 75.082Z" fill="white"/>
</svg>
